ExploreSansVariable_Normal Sans Italic.ufo
<glyph name="exclam" format="2">
  <advance width="255"/>
  <unicode hex="0021"/>
  <outline>
    <contour>
      <point x="155.839" y="716" type="line"/>
      <point x="255.839" y="716" type="line"/>
      <point x="134.647" y="207" type="line"/>
      <point x="56.6475" y="207" type="line"/>
    </contour>
    <contour>
      <point x="76.9434" y="119" type="curve" smooth="yes"/>
      <point x="117.943" y="119"/>
      <point x="132.929" y="86"/>
      <point x="126.339" y="55" type="curve" smooth="yes"/>
      <point x="119.325" y="22"/>
      <point x="90.1611" y="-7"/>
      <point x="50.1611" y="-7" type="curve" smooth="yes"/>
      <point x="10.1611" y="-7"/>
      <point x="-6.6748" y="22"/>
      <point x="0.338867" y="55" type="curve" smooth="yes"/>
      <point x="6.92871" y="86"/>
      <point x="35.9434" y="119"/>
    </contour>
  </outline>
</glyph>
<glyph name="quotedbl" format="2">
  <advance width="329"/>
  <unicode hex="0022"/>
  <outline>
    <contour>
      <point x="68.7822" y="772" type="line"/>
      <point x="146.782" y="772" type="line"/>
      <point x="84.2178" y="520" type="line"/>
      <point x="24.2178" y="520" type="line"/>
    </contour>
    <contour>
      <point x="235.782" y="772" type="line"/>
      <point x="313.782" y="772" type="line"/>
      <point x="251.218" y="520" type="line"/>
      <point x="191.218" y="520" type="line"/>
    </contour>
  </outline>
</glyph>
<glyph name="numbersign" format="2">
  <advance width="634"/>
  <unicode hex="0023"/>
  <outline>
    <contour>
      <point x="345.945" y="724" type="line"/>
      <point x="428.945" y="724" type="line"/>
      <point x="327.584" y="520" type="line"/>
      <point x="462.584" y="520" type="line"/>
      <point x="563.945" y="724" type="line"/>
      <point x="646.945" y="724" type="line"/>
      <point x="545.584" y="520" type="line"/>
      <point x="619.584" y="520" type="line"/>
      <point x="605.13" y="452" type="line"/>
      <point x="512.13" y="452" type="line"/>
      <point x="424.295" y="274" type="line"/>
      <point x="567.295" y="274" type="line"/>
      <point x="552.841" y="206" type="line"/>
      <point x="389.841" y="206" type="line"/>
      <point x="288.055" y="0" type="line"/>
      <point x="205.055" y="0" type="line"/>
      <point x="306.841" y="206" type="line"/>
      <point x="171.841" y="206" type="line"/>
      <point x="70.0547" y="0" type="line"/>
      <point x="-12.9453" y="0" type="line"/>
      <point x="88.8408" y="206" type="line"/>
      <point x="14.8408" y="206" type="line"/>
      <point x="29.2949" y="274" type="line"/>
      <point x="123.295" y="274" type="line"/>
      <point x="211.13" y="452" type="line"/>
      <point x="67.1299" y="452" type="line"/>
      <point x="81.584" y="520" type="line"/>
      <point x="244.584" y="520" type="line"/>
    </contour>
    <contour>
      <point x="341.295" y="274" type="line"/>
      <point x="429.13" y="452" type="line"/>
      <point x="294.13" y="452" type="line"/>
      <point x="206.295" y="274" type="line"/>
    </contour>
  </outline>
</glyph>
<glyph name="percent" format="2">
  <advance width="768"/>
  <unicode hex="0025"/>
  <outline>
    <contour>
      <point x="623.245" y="708" type="line"/>
      <point x="709.245" y="708" type="line"/>
      <point x="145.755" y="0" type="line"/>
      <point x="58.7549" y="0" type="line"/>
    </contour>
    <contour>
      <point x="550.198" y="322" type="curve" smooth="yes"/>
      <point x="640.198" y="322"/>
      <point x="685.17" y="256"/>
      <point x="664.126" y="157" type="curve" smooth="yes"/>
      <point x="643.083" y="58"/>
      <point x="570.055" y="-8"/>
      <point x="480.055" y="-8" type="curve" smooth="yes"/>
      <point x="390.055" y="-8"/>
      <point x="345.083" y="58"/>
      <point x="366.126" y="157" type="curve" smooth="yes"/>
      <point x="387.17" y="256"/>
      <point x="460.198" y="322"/>
    </contour>
    <contour>
      <point x="534.319" y="252" type="curve" smooth="yes"/>
      <point x="489.319" y="252"/>
      <point x="459.518" y="220"/>
      <point x="445.701" y="155" type="curve" smooth="yes"/>
      <point x="432.735" y="94"/>
      <point x="449.146" y="63"/>
      <point x="495.146" y="63" type="curve" smooth="yes"/>
      <point x="541.146" y="63"/>
      <point x="570.735" y="94"/>
      <point x="583.701" y="155" type="curve" smooth="yes"/>
      <point x="589.652" y="183"/>
      <point x="598.319" y="252"/>
    </contour>
    <contour>
      <point x="271.854" y="645" type="curve" smooth="yes"/>
      <point x="226.854" y="645"/>
      <point x="197.052" y="613"/>
      <point x="183.448" y="549" type="curve" smooth="yes"/>
      <point x="170.482" y="488"/>
      <point x="186.894" y="457"/>
      <point x="232.894" y="457" type="curve" smooth="yes"/>
      <point x="278.894" y="457"/>
      <point x="308.482" y="488"/>
      <point x="321.661" y="550" type="curve" smooth="yes"/>
      <point x="328.25" y="581"/>
      <point x="333.854" y="645"/>
    </contour>
    <contour>
      <point x="287.945" y="716" type="curve" smooth="yes"/>
      <point x="377.945" y="716"/>
      <point x="422.917" y="650"/>
      <point x="401.874" y="551" type="curve" smooth="yes"/>
      <point x="381.043" y="453"/>
      <point x="308.589" y="385"/>
      <point x="217.589" y="385" type="curve" smooth="yes"/>
      <point x="126.589" y="385"/>
      <point x="83.043" y="453"/>
      <point x="103.874" y="551" type="curve" smooth="yes"/>
      <point x="124.917" y="650"/>
      <point x="197.945" y="716"/>
    </contour>
  </outline>
</glyph>
<glyph name="ampersand" format="2">
  <advance width="713"/>
  <unicode hex="0026"/>
  <outline>
    <contour>
      <point x="414.945" y="716" type="curve" smooth="yes"/>
      <point x="485.945" y="716"/>
      <point x="534.781" y="687"/>
      <point x="571.83" y="659" type="curve"/>
      <point x="526.352" y="605" type="line"/>
      <point x="492.878" y="631"/>
      <point x="458.342" y="652"/>
      <point x="401.342" y="652" type="curve" smooth="yes"/>
      <point x="325.342" y="652"/>
      <point x="270.352" y="605"/>
      <point x="258.236" y="548" type="curve" smooth="yes"/>
      <point x="248.458" y="502"/>
      <point x="262.932" y="476"/>
      <point x="287.005" y="434" type="curve"/>
      <point x="562.755" y="0" type="line"/>
      <point x="463.755" y="0" type="line"/>
      <point x="221.077" y="392" type="line"/>
      <point x="178.169" y="463"/>
      <point x="166.758" y="494"/>
      <point x="180.574" y="559" type="curve" smooth="yes"/>
      <point x="195.878" y="631"/>
      <point x="281.945" y="716"/>
    </contour>
    <contour>
      <point x="217.116" y="411" type="line"/>
      <point x="247.488" y="361" type="line"/>
      <point x="190.411" y="323" type="line" smooth="yes"/>
      <point x="130.908" y="283"/>
      <point x="100.643" y="230"/>
      <point x="90.0156" y="180" type="curve" smooth="yes"/>
      <point x="74.9238" y="109"/>
      <point x="109.658" y="56"/>
      <point x="200.658" y="56" type="curve" smooth="yes"/>
      <point x="280.658" y="56"/>
      <point x="359.648" y="103"/>
      <point x="396.952" y="175" type="curve"/>
      <point x="525.729" y="428" type="line"/>
      <point x="693.966" y="415" type="line"/>
      <point x="679.3" y="346" type="line"/>
      <point x="563" y="354" type="line"/>
      <point x="539.223" y="308"/>
      <point x="488.754" y="207"/>
      <point x="461.276" y="153" type="curve" smooth="yes"/>
      <point x="414.721" y="61"/>
      <point x="297.055" y="-8"/>
      <point x="179.055" y="-8" type="curve" smooth="yes"/>
      <point x="47.0547" y="-8"/>
      <point x="-11.5156" y="74"/>
      <point x="11.0156" y="180" type="curve" smooth="yes"/>
      <point x="28.0195" y="260"/>
      <point x="93.0488" y="326"/>
      <point x="165.676" y="376" type="curve" smooth="yes"/>
    </contour>
  </outline>
</glyph>
<glyph name="parenleft" format="2">
  <advance width="300"/>
  <unicode hex="0028"/>
  <outline>
    <contour>
      <point x="288.824" y="800" type="curve"/>
      <point x="378.824" y="800" type="line"/>
      <point x="336.085" y="773"/>
      <point x="161.091" y="646"/>
      <point x="102" y="368" type="curve" smooth="yes"/>
      <point x="72.2422" y="228"/>
      <point x="77.8076" y="66"/>
      <point x="194.176" y="-64" type="curve"/>
      <point x="99.1758" y="-64" type="line"/>
      <point x="8.09277" y="25"/>
      <point x="-12.3477" y="197"/>
      <point x="24" y="368" type="curve" smooth="yes"/>
      <point x="65.4482" y="563"/>
      <point x="154.057" y="707"/>
    </contour>
  </outline>
</glyph>
<glyph name="parenright" format="2">
  <advance width="300"/>
  <unicode hex="0029"/>
  <outline>
    <contour>
      <point x="104.824" y="800" type="curve"/>
      <point x="199.824" y="800" type="line"/>
      <point x="230.447" y="770"/>
      <point x="335.304" y="647"/>
      <point x="276.638" y="371" type="curve" smooth="yes"/>
      <point x="234.764" y="174"/>
      <point x="145.943" y="29"/>
      <point x="10.1758" y="-64" type="curve"/>
      <point x="-79.8242" y="-64" type="line"/>
      <point x="-9.47168" y="-20"/>
      <point x="143.073" y="119"/>
      <point x="196.638" y="371" type="curve" smooth="yes"/>
      <point x="235.961" y="556"/>
      <point x="205.356" y="699"/>
    </contour>
  </outline>
</glyph>
<glyph name="asterisk" format="2">
  <advance width="475"/>
  <unicode hex="002A"/>
  <outline>
    <contour>
      <point x="239.835" y="806" type="line"/>
      <point x="309.835" y="806" type="line"/>
      <point x="287.092" y="699" type="line"/>
      <point x="272.377" y="658" type="line"/>
      <point x="315.415" y="677" type="line"/>
      <point x="423.43" y="710" type="line"/>
      <point x="429.976" y="642" type="line"/>
      <point x="322.174" y="610" type="line"/>
      <point x="282.898" y="604" type="line"/>
      <point x="303.159" y="577" type="line"/>
      <point x="344.667" y="490" type="line"/>
      <point x="279.165" y="450" type="line"/>
      <point x="236.444" y="536" type="line"/>
      <point x="226.31" y="573" type="line"/>
      <point x="199.444" y="536" type="line"/>
      <point x="119.165" y="450" type="line"/>
      <point x="70.667" y="490" type="line"/>
      <point x="149.159" y="577" type="line"/>
      <point x="180.898" y="604" type="line"/>
      <point x="144.174" y="610" type="line"/>
      <point x="50.9756" y="642" type="line"/>
      <point x="85.4297" y="710" type="line"/>
      <point x="180.415" y="677" type="line"/>
      <point x="214.377" y="658" type="line"/>
      <point x="217.092" y="699" type="line"/>
    </contour>
  </outline>
</glyph>
<glyph name="plus" format="2">
  <advance width="597"/>
  <unicode hex="002B"/>
  <outline>
    <contour>
      <point x="297.168" y="479" type="line"/>
      <point x="377.168" y="479" type="line"/>
      <point x="340.608" y="307" type="line"/>
      <point x="515.608" y="307" type="line"/>
      <point x="498.604" y="227" type="line"/>
      <point x="323.604" y="227" type="line"/>
      <point x="286.832" y="54" type="line"/>
      <point x="206.832" y="54" type="line"/>
      <point x="243.604" y="227" type="line"/>
      <point x="72.6045" y="227" type="line"/>
      <point x="89.6084" y="307" type="line"/>
      <point x="260.608" y="307" type="line"/>
    </contour>
  </outline>
</glyph>
<glyph name="comma" format="2">
  <advance width="165"/>
  <unicode hex="002C"/>
  <outline>
    <contour>
      <point x="61.5938" y="79" type="line"/>
      <point x="157.594" y="79" type="line"/>
      <point x="62.4062" y="-143" type="line"/>
      <point x="15.4062" y="-143" type="line"/>
    </contour>
  </outline>
</glyph>
<glyph name="period" format="2">
  <advance width="222"/>
  <unicode hex="002E"/>
  <outline>
    <contour>
      <point x="123.391" y="118" type="curve" smooth="yes"/>
      <point x="163.391" y="118"/>
      <point x="181.015" y="88"/>
      <point x="174" y="55" type="curve" smooth="yes"/>
      <point x="166.985" y="22"/>
      <point x="136.609" y="-8"/>
      <point x="96.6094" y="-8" type="curve" smooth="yes"/>
      <point x="55.6094" y="-8"/>
      <point x="41.4111" y="24"/>
      <point x="48" y="55" type="curve" smooth="yes"/>
      <point x="54.5889" y="86"/>
      <point x="82.3906" y="118"/>
    </contour>
  </outline>
</glyph>
<glyph name="slash" format="2">
  <advance width="374"/>
  <unicode hex="002F"/>
  <outline>
    <contour>
      <point x="413.269" y="772" type="line"/>
      <point x="492.269" y="772" type="line"/>
      <point x="-39.2686" y="-115" type="line"/>
      <point x="-118.269" y="-115" type="line"/>
    </contour>
  </outline>
</glyph>
<glyph name="zero" format="2">
  <advance width="550"/>
  <unicode hex="0030"/>
  <outline>
    <contour>
      <point x="337.023" y="651" type="curve" smooth="yes"/>
      <point x="252.023" y="651"/>
      <point x="179.97" y="599"/>
      <point x="128.744" y="358" type="curve" smooth="yes"/>
      <point x="86.0205" y="157"/>
      <point x="102.765" y="57"/>
      <point x="209.765" y="57" type="curve" smooth="yes"/>
      <point x="318.765" y="57"/>
      <point x="380.232" y="158"/>
      <point x="423.169" y="360" type="curve" smooth="yes"/>
      <point x="477.371" y="615"/>
      <point x="409.023" y="651"/>
    </contour>
    <contour>
      <point x="350.839" y="716" type="curve" smooth="yes"/>
      <point x="512.839" y="716"/>
      <point x="553.545" y="597"/>
      <point x="503.169" y="360" type="curve" smooth="yes"/>
      <point x="465.759" y="184"/>
      <point x="394.161" y="-7"/>
      <point x="196.161" y="-7" type="curve" smooth="yes"/>
      <point x="36.1611" y="-7"/>
      <point x="-3.12012" y="114"/>
      <point x="48.5312" y="357" type="curve" smooth="yes"/>
      <point x="99.332" y="596"/>
      <point x="189.839" y="716"/>
    </contour>
  </outline>
</glyph>
<glyph name="two" format="2">
  <advance width="550"/>
  <unicode hex="0032"/>
  <outline>
    <contour>
      <point x="113.666" y="634" type="line"/>
      <point x="184.356" y="689"/>
      <point x="256.096" y="716"/>
      <point x="331.096" y="716" type="curve" smooth="yes"/>
      <point x="464.096" y="716"/>
      <point x="514" y="640"/>
      <point x="514" y="559" type="curve" smooth="yes"/>
      <point x="514" y="450"/>
      <point x="455" y="383"/>
      <point x="356" y="295" type="curve"/>
      <point x="356" y="295"/>
      <point x="103" y="73"/>
      <point x="103" y="72" type="curve"/>
      <point x="423.209" y="72" type="line"/>
      <point x="407.904" y="0" type="line"/>
      <point x="-14.0957" y="0" type="line"/>
      <point x="0.996094" y="71" type="line"/>
      <point x="294.261" y="331" type="line" smooth="yes"/>
      <point x="398.028" y="424"/>
      <point x="434" y="464"/>
      <point x="434" y="549" type="curve" smooth="yes"/>
      <point x="434" y="602"/>
      <point x="402.491" y="652"/>
      <point x="316.491" y="652" type="curve" smooth="yes"/>
      <point x="255.491" y="652"/>
      <point x="194.178" y="627"/>
      <point x="134.763" y="578" type="curve"/>
    </contour>
  </outline>
</glyph>
<glyph name="three" format="2">
  <advance width="550"/>
  <unicode hex="0033"/>
  <outline>
    <contour>
      <point x="148.096" y="708" type="line"/>
      <point x="548.096" y="708" type="line"/>
      <point x="534.704" y="645" type="line"/>
      <point x="292.005" y="430" type="line"/>
      <point x="436.367" y="427"/>
      <point x="507.575" y="348"/>
      <point x="480.367" y="220" type="curve" smooth="yes"/>
      <point x="452.948" y="91"/>
      <point x="347.904" y="-8"/>
      <point x="184.904" y="-8" type="curve" smooth="yes"/>
      <point x="76.9043" y="-8"/>
      <point x="20.3057" y="8"/>
      <point x="-34.7432" y="36" type="curve"/>
      <point x="-4.07617" y="105" type="line"/>
      <point x="53.1221" y="73"/>
      <point x="117.509" y="56"/>
      <point x="192.509" y="56" type="curve" smooth="yes"/>
      <point x="313.509" y="56"/>
      <point x="378.899" y="119"/>
      <point x="400.793" y="222" type="curve" smooth="yes"/>
      <point x="420.773" y="316"/>
      <point x="374.401" y="366"/>
      <point x="266.401" y="366" type="curve" smooth="yes"/>
      <point x="198.401" y="366" type="line"/>
      <point x="203.792" y="429" type="line"/>
      <point x="442.491" y="644" type="line"/>
      <point x="134.491" y="644" type="line"/>
    </contour>
  </outline>
</glyph>
<glyph name="four" format="2">
  <advance width="550"/>
  <unicode hex="0034"/>
  <outline>
    <contour>
      <point x="362.245" y="708" type="line"/>
      <point x="445.245" y="708" type="line"/>
      <point x="106.493" y="234" type="line"/>
      <point x="332.493" y="234" type="line"/>
      <point x="385.633" y="484" type="line"/>
      <point x="465.633" y="484" type="line"/>
      <point x="412.493" y="234" type="line"/>
      <point x="491.493" y="234" type="line"/>
      <point x="476.614" y="164" type="line"/>
      <point x="397.614" y="164" type="line"/>
      <point x="362.755" y="0" type="line"/>
      <point x="282.755" y="0" type="line"/>
      <point x="317.614" y="164" type="line"/>
      <point x="11.6143" y="164" type="line"/>
      <point x="26.4932" y="234" type="line"/>
    </contour>
  </outline>
</glyph>
<glyph name="five" format="2">
  <advance width="550"/>
  <unicode hex="0035"/>
  <outline>
    <contour>
      <point x="162.096" y="708" type="line"/>
      <point x="536.096" y="708" type="line"/>
      <point x="521.004" y="637" type="line"/>
      <point x="222.004" y="637" type="line"/>
      <point x="159.102" y="374" type="line"/>
      <point x="204.729" y="424"/>
      <point x="260.256" y="450"/>
      <point x="322.256" y="450" type="curve" smooth="yes"/>
      <point x="444.256" y="450"/>
      <point x="500.188" y="365"/>
      <point x="470.431" y="225" type="curve" smooth="yes"/>
      <point x="439.822" y="81"/>
      <point x="327.904" y="-8"/>
      <point x="176.904" y="-8" type="curve" smooth="yes"/>
      <point x="97.9043" y="-8"/>
      <point x="31.2188" y="17"/>
      <point x="-21.3662" y="66" type="curve"/>
      <point x="24.9619" y="124" type="line"/>
      <point x="75.3975" y="79"/>
      <point x="130.509" y="56"/>
      <point x="190.509" y="56" type="curve" smooth="yes"/>
      <point x="298.509" y="56"/>
      <point x="366.411" y="112"/>
      <point x="389.58" y="221" type="curve" smooth="yes"/>
      <point x="413.387" y="333"/>
      <point x="379.227" y="384"/>
      <point x="280.227" y="384" type="curve" smooth="yes"/>
      <point x="236.227" y="384"/>
      <point x="192.613" y="367"/>
      <point x="149.599" y="334" type="curve"/>
      <point x="74.5986" y="334" type="line"/>
    </contour>
  </outline>
</glyph>
<glyph name="six" format="2">
  <advance width="550"/>
  <unicode hex="0036"/>
  <outline>
    <contour>
      <point x="362" y="708" type="line"/>
      <point x="451" y="708" type="line"/>
      <point x="432" y="686"/>
      <point x="186" y="422"/>
      <point x="160" y="372" type="curve"/>
      <point x="197" y="413"/>
      <point x="269" y="439"/>
      <point x="333" y="439" type="curve" smooth="yes"/>
      <point x="428" y="439"/>
      <point x="515" y="377"/>
      <point x="515" y="259" type="curve" smooth="yes"/>
      <point x="515" y="64"/>
      <point x="360" y="-8"/>
      <point x="238" y="-8" type="curve" smooth="yes"/>
      <point x="103" y="-8"/>
      <point x="33" y="63"/>
      <point x="33" y="168" type="curve" smooth="yes"/>
      <point x="33" y="260"/>
      <point x="66" y="374"/>
      <point x="162" y="482" type="curve" smooth="yes"/>
    </contour>
    <contour>
      <point x="317" y="375" type="curve" smooth="yes"/>
      <point x="246" y="375"/>
      <point x="183" y="354"/>
      <point x="147" y="303" type="curve" smooth="yes"/>
      <point x="126" y="272"/>
      <point x="113" y="231"/>
      <point x="113" y="173" type="curve" smooth="yes"/>
      <point x="113" y="81"/>
      <point x="167" y="56"/>
      <point x="243" y="56" type="curve" smooth="yes"/>
      <point x="337" y="56"/>
      <point x="435" y="110"/>
      <point x="435" y="258" type="curve" smooth="yes"/>
      <point x="435" y="338"/>
      <point x="379" y="375"/>
    </contour>
  </outline>
</glyph>
<glyph name="seven" format="2">
  <advance width="550"/>
  <unicode hex="0037"/>
  <outline>
    <contour>
      <point x="119.245" y="708" type="line"/>
      <point x="567.245" y="708" type="line"/>
      <point x="554.491" y="648" type="line"/>
      <point x="159.755" y="0" type="line"/>
      <point x="74.7549" y="0" type="line"/>
      <point x="473.642" y="644" type="line"/>
      <point x="105.642" y="644" type="line"/>
    </contour>
  </outline>
</glyph>
<glyph name="eight" format="2">
  <advance width="550"/>
  <unicode hex="0038"/>
  <outline>
    <contour>
      <point x="350.839" y="716" type="curve" smooth="yes"/>
      <point x="483.839" y="716"/>
      <point x="548.897" y="641"/>
      <point x="522.966" y="519" type="curve" smooth="yes"/>
      <point x="506.599" y="442"/>
      <point x="450.633" y="381"/>
      <point x="385.295" y="370" type="curve"/>
      <point x="455.469" y="352"/>
      <point x="489.015" y="284"/>
      <point x="470.522" y="197" type="curve" smooth="yes"/>
      <point x="443.74" y="71"/>
      <point x="339.161" y="-7"/>
      <point x="197.161" y="-7" type="curve" smooth="yes"/>
      <point x="56.1611" y="-7"/>
      <point x="-14.6846" y="69"/>
      <point x="12.0977" y="195" type="curve" smooth="yes"/>
      <point x="33.3525" y="295"/>
      <point x="84.1309" y="341"/>
      <point x="169.295" y="370" type="curve"/>
      <point x="102.846" y="382"/>
      <point x="78.4727" y="432"/>
      <point x="96.9658" y="519" type="curve" smooth="yes"/>
      <point x="123.322" y="643"/>
      <point x="217.839" y="716"/>
    </contour>
    <contour>
      <point x="336.811" y="650" type="curve" smooth="yes"/>
      <point x="252.811" y="650"/>
      <point x="194.607" y="602"/>
      <point x="176.966" y="519" type="curve" smooth="yes"/>
      <point x="161.236" y="445"/>
      <point x="200.033" y="397"/>
      <point x="283.033" y="397" type="curve" smooth="yes"/>
      <point x="368.033" y="397"/>
      <point x="427.236" y="445"/>
      <point x="442.966" y="519" type="curve" smooth="yes"/>
      <point x="460.607" y="602"/>
      <point x="421.811" y="650"/>
    </contour>
    <contour>
      <point x="270.067" y="336" type="curve" smooth="yes"/>
      <point x="180.067" y="336"/>
      <point x="110.59" y="282"/>
      <point x="92.5225" y="197" type="curve" smooth="yes"/>
      <point x="72.7549" y="104"/>
      <point x="111.765" y="57"/>
      <point x="210.765" y="57" type="curve" smooth="yes"/>
      <point x="310.765" y="57"/>
      <point x="370.755" y="104"/>
      <point x="390.522" y="197" type="curve" smooth="yes"/>
      <point x="409.015" y="284"/>
      <point x="363.067" y="336"/>
    </contour>
  </outline>
</glyph>
<glyph name="nine" format="2">
  <advance width="550"/>
  <unicode hex="0039"/>
  <outline>
    <contour>
      <point x="320" y="716" type="curve" smooth="yes"/>
      <point x="455" y="716"/>
      <point x="525" y="644"/>
      <point x="525" y="539" type="curve" smooth="yes"/>
      <point x="525" y="447"/>
      <point x="492" y="334"/>
      <point x="396" y="226" type="curve" smooth="yes"/>
      <point x="196" y="0" type="line"/>
      <point x="107" y="0" type="line"/>
      <point x="126" y="22"/>
      <point x="372" y="286"/>
      <point x="398" y="336" type="curve"/>
      <point x="361" y="295"/>
      <point x="293" y="269"/>
      <point x="229" y="269" type="curve" smooth="yes"/>
      <point x="134" y="269"/>
      <point x="53" y="331"/>
      <point x="53" y="449" type="curve" smooth="yes"/>
      <point x="53" y="644"/>
      <point x="198" y="716"/>
    </contour>
    <contour>
      <point x="315" y="652" type="curve" smooth="yes"/>
      <point x="221" y="652"/>
      <point x="133" y="598"/>
      <point x="133" y="450" type="curve" smooth="yes"/>
      <point x="133" y="370"/>
      <point x="183" y="333"/>
      <point x="245" y="333" type="curve" smooth="yes"/>
      <point x="316" y="333"/>
      <point x="375" y="354"/>
      <point x="411" y="405" type="curve" smooth="yes"/>
      <point x="432" y="436"/>
      <point x="445" y="477"/>
      <point x="445" y="535" type="curve" smooth="yes"/>
      <point x="445" y="627"/>
      <point x="391" y="652"/>
    </contour>
  </outline>
</glyph>
<glyph name="colon" format="2">
  <advance width="254"/>
  <unicode hex="003A"/>
  <outline>
    <contour>
      <point x="182.965" y="528" type="curve" smooth="yes"/>
      <point x="219.965" y="528"/>
      <point x="241.227" y="501"/>
      <point x="233.574" y="465" type="curve" smooth="yes"/>
      <point x="225.922" y="429"/>
      <point x="193.183" y="402"/>
      <point x="156.183" y="402" type="curve" smooth="yes"/>
      <point x="120.183" y="402"/>
      <point x="99.9219" y="429"/>
      <point x="107.574" y="465" type="curve" smooth="yes"/>
      <point x="115.227" y="501"/>
      <point x="146.965" y="528"/>
    </contour>
    <contour>
      <point x="95.8174" y="118" type="curve" smooth="yes"/>
      <point x="131.817" y="118"/>
      <point x="153.865" y="90"/>
      <point x="146.213" y="54" type="curve" smooth="yes"/>
      <point x="138.773" y="19"/>
      <point x="106.035" y="-8"/>
      <point x="69.0352" y="-8" type="curve" smooth="yes"/>
      <point x="32.0352" y="-8"/>
      <point x="12.3486" y="17"/>
      <point x="20.2129" y="54" type="curve" smooth="yes"/>
      <point x="28.0781" y="91"/>
      <point x="59.8174" y="118"/>
    </contour>
  </outline>
</glyph>
<glyph name="less" format="2">
  <advance width="529"/>
  <unicode hex="003C"/>
  <outline>
    <contour>
      <point x="58.9463" y="330" type="line"/>
      <point x="515.145" y="505" type="line"/>
      <point x="530.902" y="438" type="line"/>
      <point x="108.106" y="279" type="line"/>
      <point x="463.098" y="119" type="line"/>
      <point x="418.855" y="52" type="line"/>
      <point x="37.0537" y="227" type="line"/>
    </contour>
  </outline>
</glyph>
<glyph name="equal" format="2">
  <advance width="597"/>
  <unicode hex="003D"/>
  <outline>
    <contour>
      <point x="107.845" y="418" type="line"/>
      <point x="559.845" y="418" type="line"/>
      <point x="544.753" y="347" type="line"/>
      <point x="92.7529" y="347" type="line"/>
    </contour>
    <contour>
      <point x="67.0342" y="226" type="line"/>
      <point x="519.034" y="226" type="line"/>
      <point x="504.155" y="156" type="line"/>
      <point x="52.1553" y="156" type="line"/>
    </contour>
  </outline>
</glyph>
<glyph name="greater" format="2">
  <advance width="529"/>
  <unicode hex="003E"/>
  <outline>
    <contour>
      <point x="110.145" y="505" type="line"/>
      <point x="491.946" y="330" type="line"/>
      <point x="470.054" y="227" type="line"/>
      <point x="13.8555" y="52" type="line"/>
      <point x="-1.90234" y="119" type="line"/>
      <point x="421.106" y="279" type="line"/>
      <point x="65.9023" y="438" type="line"/>
    </contour>
  </outline>
</glyph>
<glyph name="question" format="2">
  <advance width="510"/>
  <unicode hex="003F"/>
  <outline>
    <contour>
      <point x="313.54" y="732" type="curve" smooth="yes"/>
      <point x="347.54" y="732"/>
      <point x="525.839" y="724"/>
      <point x="490.13" y="556" type="curve" smooth="yes"/>
      <point x="479.077" y="504"/>
      <point x="445.661" y="455"/>
      <point x="405.497" y="426" type="curve" smooth="yes"/>
      <point x="261.392" y="322"/>
      <point x="247.266" y="312"/>
      <point x="230.262" y="232" type="curve" smooth="yes"/>
      <point x="226.436" y="214"/>
      <point x="225.034" y="198"/>
      <point x="225.271" y="185" type="curve"/>
      <point x="155.57" y="177" type="line"/>
      <point x="155.247" y="199"/>
      <point x="157.498" y="219"/>
      <point x="161.537" y="238" type="curve" smooth="yes"/>
      <point x="181.729" y="333"/>
      <point x="245.145" y="382"/>
      <point x="342.599" y="450" type="curve" smooth="yes"/>
      <point x="377.913" y="475"/>
      <point x="401.353" y="510"/>
      <point x="410.917" y="555" type="curve" smooth="yes"/>
      <point x="426.434" y="628"/>
      <point x="389.299" y="665"/>
      <point x="299.299" y="665" type="curve" smooth="yes"/>
      <point x="246.299" y="665"/>
      <point x="189.047" y="645"/>
      <point x="126.332" y="604" type="curve"/>
      <point x="108.299" y="665" type="line"/>
      <point x="179.863" y="710"/>
      <point x="248.54" y="732"/>
    </contour>
    <contour>
      <point x="186.242" y="119" type="curve" smooth="yes"/>
      <point x="226.242" y="119"/>
      <point x="243.44" y="87"/>
      <point x="236.639" y="55" type="curve" smooth="yes"/>
      <point x="229.624" y="22"/>
      <point x="198.46" y="-7"/>
      <point x="159.46" y="-7" type="curve" smooth="yes"/>
      <point x="118.46" y="-7"/>
      <point x="103.837" y="23"/>
      <point x="110.639" y="55" type="curve" smooth="yes"/>
      <point x="117.229" y="86"/>
      <point x="144.242" y="119"/>
    </contour>
  </outline>
</glyph>
<glyph name="at" format="2">
  <advance width="954"/>
  <unicode hex="0040"/>
  <outline>
    <contour>
      <point x="579.226" y="800" type="curve" smooth="yes"/>
      <point x="817.226" y="800"/>
      <point x="968.791" y="638"/>
      <point x="914.802" y="384" type="curve" smooth="yes"/>
      <point x="892.483" y="279"/>
      <point x="842.841" y="196"/>
      <point x="765.663" y="134" type="curve"/>
      <point x="695.962" y="126" type="line"/>
      <point x="559.667" y="214" type="line"/>
      <point x="514.552" y="157"/>
      <point x="450.388" y="128"/>
      <point x="391.388" y="128" type="curve" smooth="yes"/>
      <point x="277.388" y="128"/>
      <point x="232.242" y="212"/>
      <point x="255.198" y="320" type="curve" smooth="yes"/>
      <point x="289.42" y="481"/>
      <point x="420.463" y="580"/>
      <point x="539.463" y="580" type="curve" smooth="yes"/>
      <point x="593.463" y="580"/>
      <point x="625.874" y="549"/>
      <point x="643.584" y="510" type="curve"/>
      <point x="678.337" y="570" type="line"/>
      <point x="739.337" y="570" type="line"/>
      <point x="632.72" y="266" type="line"/>
      <point x="736.841" y="196" type="line"/>
      <point x="790.17" y="254"/>
      <point x="824.773" y="318"/>
      <point x="839.652" y="388" type="curve" smooth="yes"/>
      <point x="888.327" y="617"/>
      <point x="745.559" y="731"/>
      <point x="564.559" y="731" type="curve" smooth="yes"/>
      <point x="383.559" y="731"/>
      <point x="177.052" y="611"/>
      <point x="124.551" y="364" type="curve" smooth="yes"/>
      <point x="74.1748" y="127"/>
      <point x="200.441" y="-27"/>
      <point x="415.441" y="-27" type="curve" smooth="yes"/>
      <point x="495.441" y="-27"/>
      <point x="598.055" y="-10"/>
      <point x="624.18" y="0" type="curve"/>
      <point x="609.089" y="-71" type="line"/>
      <point x="559.963" y="-81"/>
      <point x="466.774" y="-96"/>
      <point x="396.774" y="-96" type="curve" smooth="yes"/>
      <point x="168.774" y="-96"/>
      <point x="-19.2549" y="45"/>
      <point x="48.5508" y="364" type="curve" smooth="yes"/>
      <point x="112.105" y="663"/>
      <point x="374.226" y="800"/>
    </contour>
    <contour>
      <point x="518.584" y="510" type="curve" smooth="yes"/>
      <point x="415.584" y="510"/>
      <point x="353.816" y="417"/>
      <point x="334.261" y="325" type="curve" smooth="yes"/>
      <point x="319.382" y="255"/>
      <point x="333.267" y="198"/>
      <point x="424.267" y="198" type="curve" smooth="yes"/>
      <point x="473.267" y="198"/>
      <point x="552.344" y="236"/>
      <point x="593.275" y="358" type="curve" smooth="yes"/>
      <point x="623.405" y="448" type="line"/>
      <point x="602.482" y="486"/>
      <point x="569.584" y="510"/>
    </contour>
  </outline>
</glyph>
<glyph name="A" format="2">
  <advance width="580"/>
  <unicode hex="0041"/>
  <guideline x="0" y="260" angle="0" name="ItalicCenter" identifier="fontra-guideline-0"/>
  <anchor x="432" y="881" name="AccentCenter"/>
  <outline>
    <contour>
      <point x="344" y="708" type="line"/>
      <point x="451" y="708" type="line"/>
      <point x="528" y="0" type="line"/>
      <point x="447" y="0" type="line"/>
      <point x="429" y="182" type="line"/>
      <point x="124" y="182" type="line"/>
      <point x="24" y="0" type="line"/>
      <point x="-59" y="0" type="line"/>
    </contour>
    <contour>
      <point x="382" y="648" type="line"/>
      <point x="160" y="246" type="line"/>
      <point x="424" y="246" type="line"/>
      <point x="385" y="648" type="line"/>
    </contour>
  </outline>
</glyph>
<glyph name="B" format="2">
  <advance width="634"/>
  <unicode hex="0042"/>
  <guideline x="0" y="260" angle="0" name="ItalicCenter" identifier="fontra-guideline-0"/>
  <outline>
    <contour>
      <point x="175" y="708" type="line"/>
      <point x="424" y="708" type="line" smooth="yes"/>
      <point x="556" y="708"/>
      <point x="623" y="641"/>
      <point x="600" y="534" type="curve" smooth="yes"/>
      <point x="585" y="461"/>
      <point x="539" y="409"/>
      <point x="463" y="378" type="curve"/>
      <point x="542" y="357"/>
      <point x="580" y="288"/>
      <point x="561" y="197" type="curve" smooth="yes"/>
      <point x="534" y="74"/>
      <point x="435" y="0"/>
      <point x="295" y="0" type="curve" smooth="yes"/>
      <point x="25" y="0" type="line"/>
    </contour>
    <contour>
      <point x="238" y="644" type="line"/>
      <point x="188" y="412" type="line"/>
      <point x="365" y="412" type="line" smooth="yes"/>
      <point x="455" y="412"/>
      <point x="504" y="449"/>
      <point x="521" y="530" type="curve" smooth="yes"/>
      <point x="538" y="606"/>
      <point x="500" y="644"/>
      <point x="409" y="644" type="curve" smooth="yes"/>
    </contour>
    <contour>
      <point x="174" y="344" type="line"/>
      <point x="114" y="64" type="line"/>
      <point x="308" y="64" type="line" smooth="yes"/>
      <point x="399" y="64"/>
      <point x="463" y="115"/>
      <point x="482" y="202" type="curve" smooth="yes"/>
      <point x="501" y="294"/>
      <point x="454" y="344"/>
      <point x="345" y="344" type="curve" smooth="yes"/>
    </contour>
  </outline>
</glyph>
<glyph name="C" format="2">
  <advance width="585"/>
  <unicode hex="0043"/>
  <guideline x="0" y="260" angle="0" name="ItalicCenter" identifier="fontra-guideline-0"/>
  <outline>
    <contour>
      <point x="425" y="716" type="curve" smooth="yes"/>
      <point x="512" y="716"/>
      <point x="575" y="687"/>
      <point x="627" y="628" type="curve"/>
      <point x="583" y="580" type="line"/>
      <point x="522" y="643"/>
      <point x="474" y="653"/>
      <point x="413" y="653" type="curve" smooth="yes"/>
      <point x="285" y="653"/>
      <point x="122" y="551"/>
      <point x="122" y="257" type="curve" smooth="yes"/>
      <point x="122" y="162"/>
      <point x="147" y="56"/>
      <point x="292" y="56" type="curve" smooth="yes"/>
      <point x="367" y="56"/>
      <point x="416" y="80"/>
      <point x="485" y="126" type="curve"/>
      <point x="513" y="69" type="line"/>
      <point x="479" y="45"/>
      <point x="406" y="-8"/>
      <point x="277" y="-8" type="curve" smooth="yes"/>
      <point x="76" y="-8"/>
      <point x="44" y="167"/>
      <point x="44" y="257" type="curve" smooth="yes"/>
      <point x="44" y="589"/>
      <point x="246" y="716"/>
    </contour>
  </outline>
</glyph>
<glyph name="D" format="2">
  <advance width="640.978218238996"/>
  <unicode hex="0044"/>
  <guideline x="0" y="260" angle="0" name="ItalicCenter" identifier="fontra-guideline-0"/>
  <outline>
    <contour>
      <point x="241" y="642" type="line"/>
      <point x="118" y="64" type="line"/>
      <point x="231" y="64" type="line" smooth="yes"/>
      <point x="386" y="64"/>
      <point x="484" y="163"/>
      <point x="526" y="361" type="curve" smooth="yes"/>
      <point x="566" y="546"/>
      <point x="507" y="642"/>
      <point x="356" y="642" type="curve" smooth="yes"/>
    </contour>
    <contour>
      <point x="175" y="708" type="line"/>
      <point x="370" y="708" type="line" smooth="yes"/>
      <point x="570" y="708"/>
      <point x="653" y="585"/>
      <point x="605" y="361" type="curve" smooth="yes"/>
      <point x="555" y="124"/>
      <point x="422" y="0"/>
      <point x="216" y="0" type="curve" smooth="yes"/>
      <point x="25" y="0" type="line"/>
    </contour>
  </outline>
</glyph>
<glyph name="E" format="2">
  <advance width="560"/>
  <unicode hex="0045"/>
  <guideline x="0" y="260" angle="0" name="ItalicCenter" identifier="fontra-guideline-0"/>
  <anchor x="413.805" y="880" name="AccentCenter"/>
  <outline>
    <contour>
      <point x="175" y="708" type="line"/>
      <point x="607" y="708" type="line"/>
      <point x="594" y="644" type="line"/>
      <point x="242" y="644" type="line"/>
      <point x="190" y="402" type="line"/>
      <point x="462" y="402" type="line"/>
      <point x="447" y="332" type="line"/>
      <point x="175" y="332" type="line"/>
      <point x="118" y="64" type="line"/>
      <point x="470" y="64" type="line"/>
      <point x="457" y="0" type="line"/>
      <point x="25" y="0" type="line"/>
    </contour>
  </outline>
</glyph>
<glyph name="F" format="2">
  <advance width="556"/>
  <unicode hex="0046"/>
  <guideline x="0" y="260" angle="0" name="ItalicCenter" identifier="fontra-guideline-0"/>
  <outline>
    <contour>
      <point x="175" y="708" type="line"/>
      <point x="615" y="708" type="line"/>
      <point x="602" y="644" type="line"/>
      <point x="244" y="644" type="line"/>
      <point x="193" y="406" type="line"/>
      <point x="473" y="406" type="line"/>
      <point x="458" y="336" type="line"/>
      <point x="178" y="336" type="line"/>
      <point x="107" y="0" type="line"/>
      <point x="25" y="0" type="line"/>
    </contour>
  </outline>
</glyph>
<glyph name="G" format="2">
  <advance width="654"/>
  <unicode hex="0047"/>
  <outline>
    <contour>
      <point x="430.945" y="716" type="curve" smooth="yes"/>
      <point x="515.945" y="716"/>
      <point x="585.568" y="686"/>
      <point x="636.815" y="626" type="curve"/>
      <point x="592.612" y="578" type="line"/>
      <point x="559.052" y="613"/>
      <point x="508.555" y="653"/>
      <point x="421.555" y="653" type="curve" smooth="yes"/>
      <point x="285.555" y="653"/>
      <point x="168.299" y="553"/>
      <point x="125.575" y="352" type="curve" smooth="yes"/>
      <point x="81.7881" y="146"/>
      <point x="159.021" y="53"/>
      <point x="297.021" y="53" type="curve" smooth="yes"/>
      <point x="337.021" y="53"/>
      <point x="403.721" y="61"/>
      <point x="446.271" y="73" type="curve"/>
      <point x="500.049" y="326" type="line"/>
      <point x="312.049" y="326" type="line"/>
      <point x="326.077" y="392" type="line"/>
      <point x="594.077" y="392" type="line"/>
      <point x="517.132" y="30" type="line"/>
      <point x="449.881" y="10"/>
      <point x="360.055" y="-8"/>
      <point x="280.055" y="-8" type="curve" smooth="yes"/>
      <point x="123.055" y="-8"/>
      <point x="-7.90234" y="91"/>
      <point x="47.5752" y="352" type="curve" smooth="yes"/>
      <point x="94.125" y="571"/>
      <point x="238.945" y="716"/>
    </contour>
  </outline>
</glyph>
<glyph name="H" format="2">
  <advance width="661"/>
  <unicode hex="0048"/>
  <outline>
    <contour>
      <point x="167.245" y="708" type="line"/>
      <point x="247.245" y="708" type="line"/>
      <point x="184.753" y="414" type="line"/>
      <point x="501.753" y="414" type="line"/>
      <point x="564.245" y="708" type="line"/>
      <point x="644.245" y="708" type="line"/>
      <point x="493.755" y="0" type="line"/>
      <point x="413.755" y="0" type="line"/>
      <point x="486.874" y="344" type="line"/>
      <point x="169.874" y="344" type="line"/>
      <point x="96.7549" y="0" type="line"/>
      <point x="16.7549" y="0" type="line"/>
    </contour>
  </outline>
</glyph>
<glyph name="J" format="2">
  <advance width="379"/>
  <unicode hex="004A"/>
  <outline>
    <contour>
      <point x="236" y="708" type="line"/>
      <point x="316" y="708" type="line"/>
      <point x="316" y="211" type="line" smooth="yes"/>
      <point x="316" y="135"/>
      <point x="293" y="-8"/>
      <point x="116" y="-8" type="curve" smooth="yes"/>
      <point x="85" y="-8"/>
      <point x="56" y="-5"/>
      <point x="28" y="0" type="curve"/>
      <point x="37.6647" y="59.8173" type="line"/>
      <point x="117" y="56" type="line" smooth="yes"/>
      <point x="195.909" y="52.2032"/>
      <point x="236" y="107"/>
      <point x="236" y="208" type="curve" smooth="yes"/>
    </contour>
  </outline>
</glyph>
<glyph name="K" format="2">
  <advance width="596"/>
  <unicode hex="004B"/>
  <outline>
    <contour>
      <point x="167.245" y="708" type="line"/>
      <point x="247.245" y="708" type="line"/>
      <point x="181.14" y="397" type="line"/>
      <point x="199.14" y="397" type="line"/>
      <point x="532.245" y="708" type="line"/>
      <point x="638.245" y="708" type="line"/>
      <point x="252.062" y="359" type="line"/>
      <point x="488.755" y="0" type="line"/>
      <point x="382.755" y="0" type="line"/>
      <point x="183.198" y="322" type="line"/>
      <point x="165.198" y="322" type="line"/>
      <point x="96.7549" y="0" type="line"/>
      <point x="16.7549" y="0" type="line"/>
    </contour>
  </outline>
</glyph>
<glyph name="L" format="2">
  <advance width="494"/>
  <unicode hex="004C"/>
  <guideline x="0" y="260" angle="0" name="ItalicCenter" identifier="fontra-guideline-0"/>
  <outline>
    <contour>
      <point x="167.245" y="708" type="line"/>
      <point x="247.245" y="708" type="line"/>
      <point x="110.358" y="64" type="line"/>
      <point x="432.358" y="64" type="line"/>
      <point x="418.755" y="0" type="line"/>
      <point x="16.7549" y="0" type="line"/>
    </contour>
  </outline>
</glyph>
<glyph name="M" format="2">
  <advance width="754"/>
  <unicode hex="004D"/>
  <outline>
    <contour>
      <point x="167.245" y="708" type="line"/>
      <point x="255.245" y="708" type="line"/>
      <point x="359.595" y="258" type="line"/>
      <point x="648.245" y="708" type="line"/>
      <point x="737.245" y="708" type="line"/>
      <point x="586.755" y="0" type="line"/>
      <point x="506.755" y="0" type="line"/>
      <point x="622.173" y="543" type="line"/>
      <point x="388.803" y="179" type="line"/>
      <point x="298.803" y="179" type="line"/>
      <point x="212.599" y="545" type="line"/>
      <point x="96.7549" y="0" type="line"/>
      <point x="16.7549" y="0" type="line"/>
    </contour>
  </outline>
</glyph>
<glyph name="O" format="2">
  <advance width="687"/>
  <unicode hex="004F"/>
  <anchor x="454.954" y="876" name="AccentCenter"/>
  <outline>
    <contour>
      <point x="420.945" y="716" type="curve" smooth="yes"/>
      <point x="614.945" y="716"/>
      <point x="681.299" y="553"/>
      <point x="640.062" y="359" type="curve" smooth="yes"/>
      <point x="599.039" y="166"/>
      <point x="462.055" y="-8"/>
      <point x="267.055" y="-8" type="curve" smooth="yes"/>
      <point x="67.0547" y="-8"/>
      <point x="8.03906" y="166"/>
      <point x="48.4248" y="356" type="curve" smooth="yes"/>
      <point x="90.0859" y="552"/>
      <point x="219.945" y="716"/>
    </contour>
    <contour>
      <point x="407.342" y="652" type="curve" smooth="yes"/>
      <point x="274.342" y="652"/>
      <point x="170.299" y="553"/>
      <point x="128.425" y="356" type="curve" smooth="yes"/>
      <point x="85.9141" y="156"/>
      <point x="147.658" y="56"/>
      <point x="280.658" y="56" type="curve" smooth="yes"/>
      <point x="413.658" y="56"/>
      <point x="516.914" y="156"/>
      <point x="559.425" y="356" type="curve" smooth="yes"/>
      <point x="601.299" y="553"/>
      <point x="540.342" y="652"/>
    </contour>
  </outline>
</glyph>
<glyph name="P" format="2">
  <advance width="606"/>
  <unicode hex="0050"/>
  <outline>
    <contour>
      <point x="229.642" y="644" type="line"/>
      <point x="161.623" y="324" type="line"/>
      <point x="297.623" y="324" type="line" smooth="yes"/>
      <point x="409.623" y="324"/>
      <point x="482.676" y="376"/>
      <point x="507.12" y="491" type="curve" smooth="yes"/>
      <point x="528.801" y="593"/>
      <point x="480.642" y="644"/>
      <point x="383.642" y="644" type="curve" smooth="yes"/>
    </contour>
    <contour>
      <point x="167.245" y="708" type="line"/>
      <point x="394.245" y="708" type="line" smooth="yes"/>
      <point x="533.245" y="708"/>
      <point x="616.878" y="631"/>
      <point x="587.12" y="491" type="curve" smooth="yes"/>
      <point x="554.812" y="339"/>
      <point x="436.02" y="260"/>
      <point x="284.02" y="260" type="curve" smooth="yes"/>
      <point x="148.02" y="260" type="line"/>
      <point x="92.7549" y="0" type="line"/>
      <point x="16.7549" y="0" type="line"/>
    </contour>
  </outline>
</glyph>
<glyph name="Q" format="2">
  <advance width="687"/>
  <unicode hex="0051"/>
  <outline>
    <contour>
      <point x="426.047" y="652" type="curve" smooth="yes"/>
      <point x="292.047" y="652"/>
      <point x="188.791" y="552"/>
      <point x="146.492" y="353" type="curve" smooth="yes"/>
      <point x="104.193" y="154"/>
      <point x="164.938" y="54"/>
      <point x="298.938" y="54" type="curve" smooth="yes"/>
      <point x="430.938" y="54"/>
      <point x="534.556" y="151"/>
      <point x="577.492" y="353" type="curve" smooth="yes"/>
      <point x="620.429" y="555"/>
      <point x="558.047" y="652"/>
    </contour>
    <contour>
      <point x="439.65" y="716" type="curve" smooth="yes"/>
      <point x="613.65" y="716"/>
      <point x="706.806" y="585"/>
      <point x="658.556" y="358" type="curve" smooth="yes"/>
      <point x="611.58" y="137"/>
      <point x="483.011" y="12"/>
      <point x="322.397" y="-5" type="curve"/>
      <point x="312.243" y="-81"/>
      <point x="343.953" y="-120"/>
      <point x="413.953" y="-120" type="curve" smooth="yes"/>
      <point x="494.953" y="-120" type="line"/>
      <point x="489.963" y="-167" type="line"/>
      <point x="466.625" y="-178"/>
      <point x="434.35" y="-184"/>
      <point x="392.35" y="-184" type="curve" smooth="yes"/>
      <point x="297.35" y="-184"/>
      <point x="237.717" y="-107"/>
      <point x="253.397" y="-5" type="curve"/>
      <point x="96.7979" y="11"/>
      <point x="21.0049" y="139"/>
      <point x="66.918" y="355" type="curve" smooth="yes"/>
      <point x="115.593" y="584"/>
      <point x="261.65" y="716"/>
    </contour>
  </outline>
</glyph>
<glyph name="R" format="2">
  <advance width="617"/>
  <unicode hex="0052"/>
  <outline>
    <contour>
      <point x="167.245" y="708" type="line"/>
      <point x="408.245" y="708" type="line" smooth="yes"/>
      <point x="552.245" y="708"/>
      <point x="617.516" y="634"/>
      <point x="589.458" y="502" type="curve" smooth="yes"/>
      <point x="566.502" y="394"/>
      <point x="481.71" y="315"/>
      <point x="379.097" y="298" type="curve"/>
      <point x="501.755" y="0" type="line"/>
      <point x="414.755" y="0" type="line"/>
      <point x="300.821" y="292" type="line"/>
      <point x="158.821" y="292" type="line"/>
      <point x="96.7549" y="0" type="line"/>
      <point x="16.7549" y="0" type="line"/>
    </contour>
    <contour>
      <point x="172.425" y="356" type="line"/>
      <point x="314.425" y="356" type="line" smooth="yes"/>
      <point x="426.425" y="356"/>
      <point x="487.777" y="400"/>
      <point x="509.671" y="503" type="curve" smooth="yes"/>
      <point x="529.864" y="598"/>
      <point x="491.642" y="644"/>
      <point x="394.642" y="644" type="curve" smooth="yes"/>
      <point x="233.642" y="644" type="line"/>
    </contour>
  </outline>
</glyph>
<glyph name="S" format="2">
  <advance width="616"/>
  <unicode hex="0053"/>
  <outline>
    <contour>
      <point x="413.945" y="716" type="curve" smooth="yes"/>
      <point x="492.945" y="716"/>
      <point x="559.994" y="688"/>
      <point x="615.304" y="633" type="curve"/>
      <point x="571.101" y="585" type="line"/>
      <point x="523.666" y="630"/>
      <point x="466.342" y="652"/>
      <point x="399.342" y="652" type="curve" smooth="yes"/>
      <point x="309.342" y="652"/>
      <point x="221.989" y="608"/>
      <point x="205.197" y="529" type="curve" smooth="yes"/>
      <point x="189.681" y="456"/>
      <point x="213.816" y="419"/>
      <point x="319.502" y="394" type="curve" smooth="yes"/>
      <point x="399.464" y="375" type="line" smooth="yes"/>
      <point x="508.938" y="349"/>
      <point x="553.334" y="285"/>
      <point x="531.865" y="184" type="curve" smooth="yes"/>
      <point x="508.909" y="76"/>
      <point x="399.055" y="-8"/>
      <point x="241.055" y="-8" type="curve" smooth="yes"/>
      <point x="149.055" y="-8"/>
      <point x="68.0928" y="11"/>
      <point x="-10.8779" y="77" type="curve"/>
      <point x="41.0254" y="133" type="line"/>
      <point x="108.484" y="74"/>
      <point x="181.658" y="56"/>
      <point x="258.658" y="56" type="curve" smooth="yes"/>
      <point x="363.658" y="56"/>
      <point x="435.798" y="99"/>
      <point x="453.865" y="184" type="curve" smooth="yes"/>
      <point x="470.444" y="262"/>
      <point x="433.672" y="296"/>
      <point x="330.561" y="319" type="curve" smooth="yes"/>
      <point x="265.536" y="333" type="line" smooth="yes"/>
      <point x="149.851" y="358"/>
      <point x="103.304" y="426"/>
      <point x="125.197" y="529" type="curve" smooth="yes"/>
      <point x="145.603" y="625"/>
      <point x="256.945" y="716"/>
    </contour>
  </outline>
</glyph>
<glyph name="T" format="2">
  <advance width="616"/>
  <unicode hex="0054"/>
  <outline>
    <contour>
      <point x="123.245" y="708" type="line"/>
      <point x="643.245" y="708" type="line"/>
      <point x="629.004" y="641" type="line"/>
      <point x="408.004" y="641" type="line"/>
      <point x="271.755" y="0" type="line"/>
      <point x="191.755" y="0" type="line"/>
      <point x="328.004" y="641" type="line"/>
      <point x="109.004" y="641" type="line"/>
    </contour>
  </outline>
</glyph>
<glyph name="U" format="2">
  <advance width="664"/>
  <unicode hex="0055"/>
  <anchor x="424.655" y="880" name="AccentCenter"/>
  <outline>
    <contour>
      <point x="168.096" y="708" type="line"/>
      <point x="248.096" y="708" type="line"/>
      <point x="153.933" y="265" type="line" smooth="yes"/>
      <point x="134.378" y="173"/>
      <point x="123.509" y="56"/>
      <point x="271.509" y="56" type="curve" smooth="yes"/>
      <point x="424.509" y="56"/>
      <point x="459.267" y="196"/>
      <point x="473.933" y="265" type="curve" smooth="yes"/>
      <point x="568.096" y="708" type="line"/>
      <point x="648.096" y="708" type="line"/>
      <point x="553.508" y="263" type="line" smooth="yes"/>
      <point x="532.039" y="162"/>
      <point x="464.904" y="-8"/>
      <point x="253.904" y="-8" type="curve" smooth="yes"/>
      <point x="170.904" y="-8"/>
      <point x="22.707" y="24"/>
      <point x="73.9326" y="265" type="curve" smooth="yes"/>
    </contour>
  </outline>
</glyph>
<glyph name="V" format="2">
  <advance width="641"/>
  <unicode hex="0056"/>
  <outline>
    <contour>
      <point x="107.245" y="708" type="line"/>
      <point x="193.245" y="708" type="line"/>
      <point x="261.547" y="79" type="line"/>
      <point x="598.245" y="708" type="line"/>
      <point x="684.245" y="708" type="line"/>
      <point x="293.755" y="0" type="line"/>
      <point x="195.755" y="0" type="line"/>
    </contour>
  </outline>
</glyph>
<glyph name="W" format="2">
  <advance width="818"/>
  <unicode hex="0057"/>
  <outline>
    <contour>
      <point x="107.032" y="707" type="line"/>
      <point x="186.032" y="707" type="line"/>
      <point x="187.773" y="113" type="line"/>
      <point x="448.245" y="708" type="line"/>
      <point x="528.245" y="708" type="line"/>
      <point x="529.411" y="116" type="line"/>
      <point x="782.245" y="708" type="line"/>
      <point x="861.245" y="708" type="line"/>
      <point x="546.755" y="0" type="line"/>
      <point x="460.755" y="0" type="line"/>
      <point x="456.787" y="560" type="line"/>
      <point x="210.755" y="0" type="line"/>
      <point x="120.755" y="0" type="line"/>
    </contour>
  </outline>
</glyph>
<glyph name="X" format="2">
  <advance width="622"/>
  <unicode hex="0058"/>
  <outline>
    <contour>
      <point x="107.245" y="708" type="line"/>
      <point x="199.245" y="708" type="line"/>
      <point x="323.116" y="411" type="line"/>
      <point x="572.245" y="708" type="line"/>
      <point x="665.245" y="708" type="line"/>
      <point x="359" y="354" type="line"/>
      <point x="514.755" y="0" type="line"/>
      <point x="421.755" y="0" type="line"/>
      <point x="299.097" y="298" type="line"/>
      <point x="48.7549" y="0" type="line"/>
      <point x="-43.2451" y="0" type="line"/>
      <point x="263" y="354" type="line"/>
    </contour>
  </outline>
</glyph>
<glyph name="Y" format="2">
  <advance width="619"/>
  <unicode hex="0059"/>
  <anchor x="410.805" y="880" name="AccentCenter"/>
  <outline>
    <contour>
      <point x="107.245" y="708" type="line"/>
      <point x="200.245" y="708" type="line"/>
      <point x="308.449" y="342" type="line"/>
      <point x="569.245" y="708" type="line"/>
      <point x="662.245" y="708" type="line"/>
      <point x="331.933" y="269" type="line"/>
      <point x="274.755" y="0" type="line"/>
      <point x="196.755" y="0" type="line"/>
      <point x="254.357" y="271" type="line"/>
    </contour>
  </outline>
</glyph>
<glyph name="Z" format="2">
  <advance width="624"/>
  <unicode hex="005A"/>
  <outline>
    <contour>
      <point x="147.245" y="708" type="line"/>
      <point x="622.245" y="708" type="line"/>
      <point x="608.642" y="644" type="line"/>
      <point x="98.3584" y="64" type="line"/>
      <point x="490.358" y="64" type="line"/>
      <point x="476.755" y="0" type="line"/>
      <point x="-3.24512" y="0" type="line"/>
      <point x="10.3584" y="64" type="line"/>
      <point x="520.642" y="644" type="line"/>
      <point x="133.642" y="644" type="line"/>
    </contour>
  </outline>
</glyph>
<glyph name="bracketleft" format="2">
  <advance width="326"/>
  <unicode hex="005B"/>
  <outline>
    <contour>
      <point x="157.844" y="819" type="line"/>
      <point x="379.844" y="819" type="line"/>
      <point x="365.603" y="752" type="line"/>
      <point x="223.603" y="752" type="line"/>
      <point x="63.7598" y="0" type="line"/>
      <point x="205.76" y="0" type="line"/>
      <point x="192.156" y="-64" type="line"/>
      <point x="-29.8438" y="-64" type="line"/>
    </contour>
  </outline>
</glyph>
<glyph name="backslash" format="2">
  <advance width="374"/>
  <unicode hex="005C"/>
  <outline>
    <contour>
      <point x="70.2686" y="772" type="line"/>
      <point x="149.269" y="772" type="line"/>
      <point x="303.731" y="-115" type="line"/>
      <point x="224.731" y="-115" type="line"/>
    </contour>
  </outline>
</glyph>
<glyph name="bracketright" format="2">
  <advance width="326"/>
  <unicode hex="005D"/>
  <outline>
    <contour>
      <point x="133.844" y="819" type="line"/>
      <point x="355.844" y="819" type="line"/>
      <point x="168.156" y="-64" type="line"/>
      <point x="-53.8438" y="-64" type="line"/>
      <point x="-40.2402" y="0" type="line"/>
      <point x="103.76" y="0" type="line"/>
      <point x="263.603" y="752" type="line"/>
      <point x="119.603" y="752" type="line"/>
    </contour>
  </outline>
</glyph>
<glyph name="asciicircum" format="2">
  <advance width="505"/>
  <unicode hex="005E"/>
  <outline>
    <contour>
      <point x="65.0723" y="717" type="line"/>
      <point x="226.768" y="852" type="line"/>
      <point x="293.768" y="852" type="line"/>
      <point x="398.072" y="717" type="line"/>
      <point x="344.232" y="666" type="line"/>
      <point x="246.526" y="785" type="line"/>
      <point x="98.2324" y="666" type="line"/>
    </contour>
  </outline>
</glyph>
<glyph name="underscore" format="2">
  <advance width="560"/>
  <unicode hex="005F"/>
  <outline>
    <contour>
      <point x="71.4395" y="0" type="line"/>
      <point x="503.439" y="0" type="line"/>
      <point x="488.561" y="-70" type="line"/>
      <point x="56.5605" y="-70" type="line"/>
    </contour>
  </outline>
</glyph>
<glyph name="grave" format="2">
  <advance width="284"/>
  <unicode hex="0060"/>
  <outline>
    <contour>
      <point x="78.874" y="907" type="line"/>
      <point x="259.179" y="772" type="line"/>
      <point x="211.126" y="720" type="line"/>
      <point x="19.2705" y="843" type="line"/>
    </contour>
  </outline>
</glyph>
<glyph name="a" format="2">
  <advance width="519"/>
  <unicode hex="0061"/>
  <guideline x="0" y="260" angle="0" name="ItalicCenter" identifier="fontra-guideline-0"/>
  <anchor x="371.975" y="687" name="AccentCenter"/>
  <anchor x="361.975" y="687" name="Ring"/>
  <outline>
    <contour>
      <point x="286" y="466" type="curve"/>
      <point x="158" y="466"/>
      <point x="106" y="327"/>
      <point x="106" y="199" type="curve" smooth="yes"/>
      <point x="106" y="133"/>
      <point x="125" y="65"/>
      <point x="199" y="62" type="curve"/>
      <point x="347" y="161" type="line"/>
      <point x="398" y="406" type="line"/>
      <point x="380" y="429"/>
      <point x="347" y="466"/>
    </contour>
    <contour>
      <point x="289" y="528" type="curve"/>
      <point x="337" y="528"/>
      <point x="384" y="506"/>
      <point x="411" y="468" type="curve"/>
      <point x="422" y="522" type="line"/>
      <point x="499" y="508" type="line"/>
      <point x="408" y="64" type="line"/>
      <point x="475" y="55" type="line"/>
      <point x="464" y="-10" type="line"/>
      <point x="316" y="11" type="line"/>
      <point x="332" y="87" type="line"/>
      <point x="199" y="-8" type="line"/>
      <point x="80" y="-4"/>
      <point x="26" y="87"/>
      <point x="26" y="189" type="curve" smooth="yes"/>
      <point x="26" y="376"/>
      <point x="107" y="528"/>
    </contour>
  </outline>
</glyph>
<glyph name="b" format="2">
  <advance width="542"/>
  <unicode hex="0062"/>
  <outline>
    <contour>
      <point x="169" y="716" type="line"/>
      <point x="249" y="716" type="line"/>
      <point x="197" y="469" type="line"/>
      <point x="213" y="500"/>
      <point x="266" y="528"/>
      <point x="326" y="528" type="curve" smooth="yes"/>
      <point x="452" y="528"/>
      <point x="498" y="444"/>
      <point x="498" y="308" type="curve" smooth="yes"/>
      <point x="498" y="117"/>
      <point x="394" y="-8"/>
      <point x="228" y="-8" type="curve" smooth="yes"/>
      <point x="123" y="-8"/>
      <point x="70" y="35"/>
      <point x="31" y="62" type="curve"/>
    </contour>
    <contour>
      <point x="308" y="464" type="curve" smooth="yes"/>
      <point x="245" y="464"/>
      <point x="201" y="433"/>
      <point x="182" y="399" type="curve"/>
      <point x="117" y="91" type="line"/>
      <point x="146" y="72"/>
      <point x="185" y="56"/>
      <point x="232" y="56" type="curve" smooth="yes"/>
      <point x="352" y="56"/>
      <point x="418" y="150"/>
      <point x="418" y="316" type="curve" smooth="yes"/>
      <point x="418" y="409"/>
      <point x="394" y="464"/>
    </contour>
  </outline>
</glyph>
<glyph name="c" format="2">
  <advance width="455"/>
  <unicode hex="0063"/>
  <guideline x="0" y="260" angle="0" name="ItalicCenter" identifier="fontra-guideline-0"/>
  <outline>
    <contour>
      <point x="319" y="528" type="curve" smooth="yes"/>
      <point x="369" y="528"/>
      <point x="422" y="511"/>
      <point x="470" y="467" type="curve"/>
      <point x="431" y="417" type="line"/>
      <point x="390" y="451"/>
      <point x="355" y="464"/>
      <point x="315" y="464" type="curve" smooth="yes"/>
      <point x="190" y="464"/>
      <point x="127" y="370"/>
      <point x="127" y="191" type="curve" smooth="yes"/>
      <point x="127" y="112"/>
      <point x="166" y="56"/>
      <point x="251" y="56" type="curve" smooth="yes"/>
      <point x="303" y="56"/>
      <point x="333" y="66"/>
      <point x="382" y="98" type="curve"/>
      <point x="410" y="42" type="line"/>
      <point x="370" y="14"/>
      <point x="308" y="-8"/>
      <point x="244" y="-8" type="curve" smooth="yes"/>
      <point x="107" y="-8"/>
      <point x="44" y="82"/>
      <point x="44" y="191" type="curve" smooth="yes"/>
      <point x="44" y="404"/>
      <point x="155" y="528"/>
    </contour>
  </outline>
</glyph>
<glyph name="d" format="2">
  <advance width="541"/>
  <unicode hex="0064"/>
  <outline>
    <contour>
      <point x="498" y="724" type="line"/>
      <point x="578" y="724" type="line"/>
      <point x="424" y="0" type="line"/>
      <point x="343" y="0" type="line"/>
      <point x="363" y="81" type="line"/>
      <point x="323" y="25"/>
      <point x="292" y="-8"/>
      <point x="220" y="-8" type="curve" smooth="yes"/>
      <point x="91" y="-8"/>
      <point x="55" y="82"/>
      <point x="55" y="192" type="curve" smooth="yes"/>
      <point x="55" y="386"/>
      <point x="159" y="528"/>
      <point x="314" y="528" type="curve" smooth="yes"/>
      <point x="383" y="528"/>
      <point x="421" y="503"/>
      <point x="446" y="482" type="curve"/>
    </contour>
    <contour>
      <point x="312" y="464" type="curve" smooth="yes"/>
      <point x="207" y="464"/>
      <point x="136" y="365"/>
      <point x="136" y="189" type="curve" smooth="yes"/>
      <point x="136" y="97"/>
      <point x="165" y="56"/>
      <point x="250" y="56" type="curve" smooth="yes"/>
      <point x="308" y="56"/>
      <point x="338" y="96"/>
      <point x="377" y="158" type="curve"/>
      <point x="433" y="421" type="line"/>
      <point x="403" y="448"/>
      <point x="367" y="464"/>
    </contour>
  </outline>
</glyph>
<glyph name="e" format="2">
  <advance width="507"/>
  <unicode hex="0065"/>
  <guideline x="0" y="260" angle="0" name="ItalicCenter" identifier="fontra-guideline-0"/>
  <anchor x="304" y="687" name="AccentCenter"/>
  <outline>
    <contour>
      <point x="285" y="528" type="curve" smooth="yes"/>
      <point x="387" y="528"/>
      <point x="459" y="454"/>
      <point x="459" y="336" type="curve" smooth="yes"/>
      <point x="459" y="305"/>
      <point x="456" y="289"/>
      <point x="452" y="274" type="curve"/>
      <point x="123" y="217" type="line"/>
      <point x="123" y="114"/>
      <point x="157" y="56"/>
      <point x="262" y="56" type="curve" smooth="yes"/>
      <point x="317" y="56"/>
      <point x="355" y="71"/>
      <point x="394" y="93" type="curve"/>
      <point x="418" y="36" type="line"/>
      <point x="367" y="7"/>
      <point x="321" y="-8"/>
      <point x="253" y="-8" type="curve" smooth="yes"/>
      <point x="124" y="-8"/>
      <point x="48" y="85"/>
      <point x="48" y="226" type="curve" smooth="yes"/>
      <point x="48" y="379"/>
      <point x="127" y="528"/>
    </contour>
    <contour>
      <point x="279" y="464" type="curve" smooth="yes"/>
      <point x="176" y="464"/>
      <point x="125" y="370"/>
      <point x="125" y="277" type="curve"/>
      <point x="385" y="323" type="line"/>
      <point x="386" y="324" type="line"/>
      <point x="386" y="415"/>
      <point x="359" y="464"/>
    </contour>
  </outline>
</glyph>
<glyph name="f" format="2">
  <advance width="334"/>
  <unicode hex="0066"/>
  <guideline x="0" y="260" angle="0" name="ItalicCenter" identifier="fontra-guideline-0"/>
  <outline>
    <contour>
      <point x="356" y="732" type="curve" smooth="yes"/>
      <point x="384" y="732"/>
      <point x="407" y="727"/>
      <point x="422" y="722" type="curve"/>
      <point x="403" y="666" type="line"/>
      <point x="347" y="669" type="line" smooth="yes"/>
      <point x="304" y="671"/>
      <point x="261" y="645"/>
      <point x="251" y="598" type="curve" smooth="yes"/>
      <point x="235" y="520" type="line"/>
      <point x="369" y="520" type="line"/>
      <point x="355" y="456" type="line"/>
      <point x="221" y="456" type="line"/>
      <point x="120" y="-20" type="line"/>
      <point x="-32" y="-218" type="line"/>
      <point x="-96" y="-182" type="line"/>
      <point x="45" y="0" type="line"/>
      <point x="141" y="456" type="line"/>
      <point x="41" y="456" type="line"/>
      <point x="55" y="520" type="line"/>
      <point x="155" y="520" type="line"/>
      <point x="168" y="584" type="line" smooth="yes"/>
      <point x="187" y="670"/>
      <point x="257" y="732"/>
    </contour>
  </outline>
</glyph>
<glyph name="g" format="2">
  <advance width="552"/>
  <unicode hex="0067"/>
  <outline>
    <contour>
      <point x="317.521" y="528" type="curve" smooth="yes"/>
      <point x="374.521" y="528"/>
      <point x="407.119" y="512"/>
      <point x="426.931" y="497" type="curve"/>
      <point x="555.82" y="520" type="line"/>
      <point x="588.82" y="520" type="line"/>
      <point x="574.153" y="451" type="line"/>
      <point x="463.153" y="451" type="line"/>
      <point x="476.627" y="425"/>
      <point x="479.463" y="396"/>
      <point x="471.599" y="359" type="curve" smooth="yes"/>
      <point x="449.28" y="254"/>
      <point x="363.676" y="190"/>
      <point x="245.676" y="190" type="curve" smooth="yes"/>
      <point x="204.676" y="190"/>
      <point x="188.164" y="197"/>
      <point x="188.164" y="197" type="curve"/>
      <point x="120.585" y="119" type="line"/>
      <point x="350.846" y="92" type="line" smooth="yes"/>
      <point x="437.72" y="82"/>
      <point x="490.855" y="45"/>
      <point x="473.851" y="-35" type="curve" smooth="yes"/>
      <point x="454.509" y="-126"/>
      <point x="345.479" y="-192"/>
      <point x="207.479" y="-192" type="curve" smooth="yes"/>
      <point x="100.479" y="-192"/>
      <point x="46.3682" y="-169"/>
      <point x="-25.2793" y="-125" type="curve"/>
      <point x="-16.7764" y="-85" type="line"/>
      <point x="112.131" y="51" type="line"/>
      <point x="33.0439" y="60" type="line"/>
      <point x="44.0967" y="112" type="line"/>
      <point x="130.777" y="214" type="line"/>
      <point x="78.6426" y="251"/>
      <point x="73.1445" y="291"/>
      <point x="87.5986" y="359" type="curve" smooth="yes"/>
      <point x="109.279" y="461"/>
      <point x="209.521" y="528"/>
    </contour>
    <contour>
      <point x="179.643" y="44" type="line"/>
      <point x="58.2236" y="-85" type="line"/>
      <point x="99.7598" y="-106"/>
      <point x="152.083" y="-128"/>
      <point x="223.083" y="-128" type="curve" smooth="yes"/>
      <point x="319.083" y="-128"/>
      <point x="381.735" y="-92"/>
      <point x="393.001" y="-39" type="curve" smooth="yes"/>
      <point x="401.29" y="0"/>
      <point x="378.754" y="21"/>
      <point x="328.029" y="27" type="curve" smooth="yes"/>
    </contour>
    <contour>
      <point x="303.917" y="464" type="curve" smooth="yes"/>
      <point x="235.917" y="464"/>
      <point x="182.265" y="428"/>
      <point x="167.599" y="359" type="curve" smooth="yes"/>
      <point x="151.656" y="284"/>
      <point x="185.005" y="248"/>
      <point x="258.005" y="248" type="curve" smooth="yes"/>
      <point x="330.005" y="248"/>
      <point x="376.082" y="286"/>
      <point x="391.599" y="359" type="curve" smooth="yes"/>
      <point x="405.84" y="426"/>
      <point x="371.917" y="464"/>
    </contour>
  </outline>
</glyph>
<glyph name="h" format="2">
  <advance width="570"/>
  <unicode hex="0068"/>
  <guideline x="0" y="260" angle="0" name="ItalicCenter" identifier="fontra-guideline-0"/>
  <outline>
    <contour>
      <point x="167" y="707" type="line"/>
      <point x="247" y="707" type="line"/>
      <point x="193" y="453" type="line"/>
      <point x="256" y="510"/>
      <point x="314" y="528"/>
      <point x="372" y="528" type="curve" smooth="yes"/>
      <point x="490" y="528"/>
      <point x="536" y="459"/>
      <point x="508" y="325" type="curve" smooth="yes"/>
      <point x="439" y="0" type="line"/>
      <point x="359" y="0" type="line"/>
      <point x="428" y="323" type="line" smooth="yes"/>
      <point x="448" y="420"/>
      <point x="420" y="464"/>
      <point x="338" y="464" type="curve" smooth="yes"/>
      <point x="287" y="464"/>
      <point x="236" y="443"/>
      <point x="178" y="382" type="curve"/>
      <point x="97" y="0" type="line"/>
      <point x="17" y="0" type="line"/>
    </contour>
  </outline>
</glyph>
<glyph name="i" format="2">
  <advance width="261.0350945256543"/>
  <unicode hex="0069"/>
  <guideline x="0" y="260" angle="0" name="ItalicCenter" identifier="fontra-guideline-0"/>
  <outline>
    <contour>
      <point x="238.0350945256543" y="739" type="curve" smooth="yes"/>
      <point x="270.0350945256543" y="739"/>
      <point x="287.0350945256543" y="713"/>
      <point x="281.0350945256543" y="684" type="curve" smooth="yes"/>
      <point x="275.0350945256543" y="655"/>
      <point x="246.0350945256543" y="629"/>
      <point x="214.0350945256543" y="629" type="curve" smooth="yes"/>
      <point x="182.0350945256543" y="629"/>
      <point x="165.0350945256543" y="655"/>
      <point x="171.0350945256543" y="684" type="curve" smooth="yes"/>
      <point x="177.0350945256543" y="713"/>
      <point x="206.0350945256543" y="739"/>
    </contour>
    <component base="dotlessi" yxScale="4.383299778976113e-07" xOffset="-31.70019944013994"/>
  </outline>
</glyph>
<glyph name="j" format="2">
  <advance width="238"/>
  <unicode hex="006A"/>
  <guideline x="-15" y="260" angle="0" name="ItalicCenter" identifier="fontra-guideline-0"/>
  <outline>
    <contour>
      <point x="142.396" y="520" type="line"/>
      <point x="222.396" y="520" type="line"/>
      <point x="104.639" y="-34" type="line" smooth="yes"/>
      <point x="99.537" y="-58"/>
      <point x="64.0547" y="-192"/>
      <point x="-96.9453" y="-192" type="curve" smooth="yes"/>
      <point x="-105.9453" y="-192" type="line"/>
      <point x="-92.3418" y="-128" type="line"/>
      <point x="-83.3418" y="-128" type="line" smooth="yes"/>
      <point x="-54.3418" y="-128"/>
      <point x="6.7841999999999985" y="-118"/>
      <point x="24.6387" y="-34" type="curve" smooth="yes"/>
    </contour>
    <contour>
      <point x="229.945" y="739" type="curve" smooth="yes"/>
      <point x="261.945" y="739"/>
      <point x="280.419" y="713"/>
      <point x="274.255" y="684" type="curve" smooth="yes"/>
      <point x="268.09" y="655"/>
      <point x="238.563" y="629"/>
      <point x="206.563" y="629" type="curve" smooth="yes"/>
      <point x="177.563" y="629"/>
      <point x="157.453" y="652"/>
      <point x="164.255" y="684" type="curve" smooth="yes"/>
      <point x="171.057" y="716"/>
      <point x="200.945" y="739"/>
    </contour>
  </outline>
</glyph>
<glyph name="k" format="2">
  <advance width="544"/>
  <unicode hex="006B"/>
  <guideline x="0" y="260" angle="0" name="ItalicCenter" identifier="fontra-guideline-0"/>
  <outline>
    <contour>
      <point x="105" y="0" type="line"/>
      <point x="25" y="0" type="line"/>
      <point x="175" y="708" type="line"/>
      <point x="255" y="708" type="line"/>
    </contour>
    <contour>
      <point x="237" y="259" type="line"/>
      <point x="404" y="343" type="line"/>
      <point x="414" y="362"/>
      <point x="418" y="379"/>
      <point x="418" y="404" type="curve" smooth="yes"/>
      <point x="418" y="444"/>
      <point x="391" y="464"/>
      <point x="350" y="464" type="curve" smooth="yes"/>
      <point x="254" y="464"/>
      <point x="205" y="372"/>
      <point x="159" y="261" type="curve"/>
      <point x="122" y="280" type="line"/>
      <point x="171" y="435"/>
      <point x="262" y="528"/>
      <point x="374" y="528" type="curve" smooth="yes"/>
      <point x="447" y="528"/>
      <point x="496" y="485"/>
      <point x="496" y="404" type="curve" smooth="yes"/>
      <point x="496" y="371"/>
      <point x="485" y="336"/>
      <point x="459" y="304" type="curve"/>
      <point x="328" y="235" type="line"/>
      <point x="438" y="0" type="line"/>
      <point x="356" y="0" type="line"/>
    </contour>
  </outline>
</glyph>
<glyph name="l" format="2">
  <advance width="289"/>
  <unicode hex="006C"/>
  <outline>
    <contour>
      <point x="174.897" y="772" type="line"/>
      <point x="254.897" y="772" type="line"/>
      <point x="110.358" y="92" type="line" smooth="yes"/>
      <point x="105.045" y="67"/>
      <point x="110.494" y="55"/>
      <point x="128.494" y="55" type="curve"/>
      <point x="130.494" y="55"/>
      <point x="145.919" y="57"/>
      <point x="154.132" y="58" type="curve" smooth="yes"/>
      <point x="197.194" y="63" type="line"/>
      <point x="193.079" y="6" type="line"/>
      <point x="163.166" y="-3"/>
      <point x="127.103" y="-8"/>
      <point x="100.103" y="-8" type="curve" smooth="yes"/>
      <point x="42.1025" y="-8"/>
      <point x="16.3301" y="26"/>
      <point x="29.2959" y="87" type="curve" smooth="yes"/>
    </contour>
  </outline>
</glyph>
<glyph name="m" format="2">
  <advance width="803"/>
  <unicode hex="006D"/>
  <guideline x="6" y="260" angle="0" name="ItalicCenter" identifier="fontra-guideline-0"/>
  <outline>
    <contour>
      <point x="126" y="520" type="line"/>
      <point x="189" y="520" type="line"/>
      <point x="176" y="404" type="line"/>
      <point x="239" y="509"/>
      <point x="291" y="528"/>
      <point x="350" y="528" type="curve" smooth="yes"/>
      <point x="418" y="528"/>
      <point x="457" y="497"/>
      <point x="457" y="395" type="curve" smooth="yes"/>
      <point x="457" y="394"/>
      <point x="457" y="392"/>
      <point x="457" y="391" type="curve"/>
      <point x="499" y="499"/>
      <point x="564" y="528"/>
      <point x="626" y="528" type="curve" smooth="yes"/>
      <point x="709" y="528"/>
      <point x="755" y="486"/>
      <point x="755" y="409" type="curve" smooth="yes"/>
      <point x="755" y="392"/>
      <point x="753" y="373"/>
      <point x="749" y="353" type="curve" smooth="yes"/>
      <point x="674" y="0" type="line"/>
      <point x="594" y="0" type="line"/>
      <point x="669" y="352" type="line" smooth="yes"/>
      <point x="673" y="372"/>
      <point x="674" y="384"/>
      <point x="674" y="397" type="curve" smooth="yes"/>
      <point x="673" y="443"/>
      <point x="648" y="464"/>
      <point x="607" y="464" type="curve" smooth="yes"/>
      <point x="548" y="464"/>
      <point x="495" y="406"/>
      <point x="446" y="310" type="curve"/>
      <point x="380" y="0" type="line"/>
      <point x="300" y="0" type="line"/>
      <point x="378" y="368" type="line" smooth="yes"/>
      <point x="381" y="382"/>
      <point x="382" y="394"/>
      <point x="382" y="405" type="curve" smooth="yes"/>
      <point x="382" y="445"/>
      <point x="360" y="464"/>
      <point x="323" y="464" type="curve" smooth="yes"/>
      <point x="257" y="464"/>
      <point x="204" y="385"/>
      <point x="160" y="304" type="curve"/>
      <point x="96" y="0" type="line"/>
      <point x="16" y="0" type="line"/>
    </contour>
  </outline>
</glyph>
<glyph name="n" format="2">
  <advance width="527"/>
  <unicode hex="006E"/>
  <guideline x="15" y="260" angle="0" name="ItalicCenter" identifier="fontra-guideline-0"/>
  <anchor x="404.911" y="687" name="AccentCenter"/>
  <outline>
    <contour>
      <point x="126" y="520" type="line"/>
      <point x="187" y="520" type="line"/>
      <point x="175" y="389" type="line"/>
      <point x="217" y="496"/>
      <point x="265" y="528"/>
      <point x="344" y="528" type="curve" smooth="yes"/>
      <point x="415" y="528"/>
      <point x="479" y="481"/>
      <point x="479" y="394" type="curve" smooth="yes"/>
      <point x="479" y="379"/>
      <point x="476" y="352"/>
      <point x="472" y="336" type="curve" smooth="yes"/>
      <point x="401" y="0" type="line"/>
      <point x="321" y="0" type="line"/>
      <point x="392" y="334" type="line" smooth="yes"/>
      <point x="395" y="349"/>
      <point x="397" y="375"/>
      <point x="397" y="388" type="curve" smooth="yes"/>
      <point x="397" y="443"/>
      <point x="367" y="462"/>
      <point x="323" y="462" type="curve" smooth="yes"/>
      <point x="242" y="462"/>
      <point x="206" y="394"/>
      <point x="161" y="303" type="curve"/>
      <point x="96" y="0" type="line"/>
      <point x="16" y="0" type="line"/>
    </contour>
  </outline>
</glyph>
<glyph name="o" format="2">
  <advance width="524"/>
  <unicode hex="006F"/>
  <guideline x="0" y="260" angle="0" name="ItalicCenter" identifier="fontra-guideline-0"/>
  <anchor x="367.762" y="687" name="AccentCenter"/>
  <outline>
    <contour>
      <point x="305" y="464" type="curve" smooth="yes"/>
      <point x="171" y="464"/>
      <point x="119" y="311"/>
      <point x="119" y="193" type="curve" smooth="yes"/>
      <point x="119" y="108"/>
      <point x="136" y="56"/>
      <point x="217" y="56" type="curve" smooth="yes"/>
      <point x="355" y="56"/>
      <point x="404" y="210"/>
      <point x="404" y="331" type="curve" smooth="yes"/>
      <point x="404" y="413"/>
      <point x="384" y="464"/>
    </contour>
    <contour>
      <point x="319" y="528" type="curve" smooth="yes"/>
      <point x="439" y="528"/>
      <point x="485" y="457"/>
      <point x="485" y="338" type="curve" smooth="yes"/>
      <point x="485" y="168"/>
      <point x="393" y="-8"/>
      <point x="203" y="-8" type="curve" smooth="yes"/>
      <point x="86" y="-8"/>
      <point x="39" y="64"/>
      <point x="39" y="182" type="curve" smooth="yes"/>
      <point x="39" y="353"/>
      <point x="129" y="528"/>
    </contour>
  </outline>
</glyph>
<glyph name="p" format="2">
  <advance width="549"/>
  <unicode hex="0070"/>
  <guideline x="0" y="260" angle="0" name="ItalicCenter" identifier="fontra-guideline-0"/>
  <outline>
    <contour>
      <point x="305.917" y="464" type="curve" smooth="yes"/>
      <point x="240.91699999999997" y="464"/>
      <point x="186.54000000000002" y="434"/>
      <point x="138.361" y="372" type="curve"/>
      <point x="92.23599999999999" y="155" type="line"/>
      <point x="115.57" y="86"/>
      <point x="154.193" y="56"/>
      <point x="219.19299999999998" y="56" type="curve" smooth="yes"/>
      <point x="316.193" y="56"/>
      <point x="389.561" y="133"/>
      <point x="417.193" y="263" type="curve" smooth="yes"/>
      <point x="446.313" y="400"/>
      <point x="410.917" y="464"/>
    </contour>
    <contour>
      <point x="89.82" y="520" type="line"/>
      <point x="151.82" y="520" type="line"/>
      <point x="150.689" y="430" type="line"/>
      <point x="218.50599999999997" y="495"/>
      <point x="282.521" y="528"/>
      <point x="343.521" y="528" type="curve" smooth="yes"/>
      <point x="479.52099999999996" y="528"/>
      <point x="533.327" y="433"/>
      <point x="496.55600000000004" y="260" type="curve" smooth="yes"/>
      <point x="461.696" y="96"/>
      <point x="358.59" y="-8"/>
      <point x="229.58999999999997" y="-8" type="curve" smooth="yes"/>
      <point x="214.58999999999997" y="-8"/>
      <point x="116.22800000000001" y="-5"/>
      <point x="75.87" y="78" type="curve"/>
      <point x="18.4795" y="-192" type="line"/>
      <point x="-61.5205" y="-192" type="line"/>
    </contour>
  </outline>
</glyph>
<glyph name="q" format="2">
  <advance width="603.0129737270802"/>
  <unicode hex="0071"/>
  <guideline x="0" y="260" angle="0" name="ItalicCenter" identifier="fontra-guideline-0"/>
  <outline>
    <contour>
      <point x="325.90997372708" y="464" type="curve" smooth="yes"/>
      <point x="221.90997372708006" y="464"/>
      <point x="158.09397372708005" y="399"/>
      <point x="129.18597372708007" y="263" type="curve" smooth="yes"/>
      <point x="101.97797372708004" y="135"/>
      <point x="144.18597372708007" y="56"/>
      <point x="239.18597372708" y="56" type="curve" smooth="yes"/>
      <point x="310.18597372708" y="56"/>
      <point x="374.26397372708004" y="94"/>
      <point x="408.22897372708" y="155" type="curve"/>
      <point x="454.35397372708" y="372" type="line"/>
      <point x="434.68197372708005" y="430"/>
      <point x="385.90997372708" y="464"/>
    </contour>
    <contour>
      <point x="503.81297372708013" y="520" type="line"/>
      <point x="565.8129737270801" y="520" type="line"/>
      <point x="414.47197372708" y="-192" type="line"/>
      <point x="334.47197372708" y="-192" type="line"/>
      <point x="390.37497372708003" y="71" type="line"/>
      <point x="316.25997372708" y="14"/>
      <point x="263.58297372708" y="-8"/>
      <point x="198.58297372708006" y="-8" type="curve" smooth="yes"/>
      <point x="67.58277372708005" y="-8"/>
      <point x="12.413873727080048" y="90"/>
      <point x="48.54867372708006" y="260" type="curve" smooth="yes"/>
      <point x="85.74597372708004" y="435"/>
      <point x="178.51397372708004" y="528"/>
      <point x="317.51397372708004" y="528" type="curve" smooth="yes"/>
      <point x="380.51397372708004" y="528"/>
      <point x="432.13697372708003" y="498"/>
      <point x="472.38397372708005" y="438" type="curve"/>
    </contour>
  </outline>
</glyph>
<glyph name="r" format="2">
  <advance width="394"/>
  <unicode hex="0072"/>
  <guideline x="0" y="260" angle="0" name="ItalicCenter" identifier="fontra-guideline-0"/>
  <outline>
    <contour>
      <point x="148" y="520" type="line"/>
      <point x="209" y="520" type="line"/>
      <point x="208" y="424" type="line"/>
      <point x="220" y="481"/>
      <point x="286" y="529"/>
      <point x="357" y="529" type="curve" smooth="yes"/>
      <point x="375" y="529"/>
      <point x="395" y="527"/>
      <point x="410" y="523" type="curve"/>
      <point x="391" y="460" type="line"/>
      <point x="326" y="460" type="line" smooth="yes"/>
      <point x="280" y="460"/>
      <point x="221" y="425"/>
      <point x="198" y="377" type="curve"/>
      <point x="118" y="0" type="line"/>
      <point x="38" y="0" type="line"/>
    </contour>
  </outline>
</glyph>
<glyph name="s" format="2">
  <advance width="491"/>
  <unicode hex="0073"/>
  <guideline x="0" y="260" angle="0" name="ItalicCenter" identifier="fontra-guideline-0"/>
  <outline>
    <contour>
      <point x="307" y="528" type="curve" smooth="yes"/>
      <point x="370" y="528"/>
      <point x="419" y="511"/>
      <point x="466" y="481" type="curve"/>
      <point x="438" y="420" type="line"/>
      <point x="392" y="450"/>
      <point x="350.361" y="464"/>
      <point x="308" y="464" type="curve" smooth="yes"/>
      <point x="238.361" y="464"/>
      <point x="171" y="439"/>
      <point x="171" y="379" type="curve" smooth="yes"/>
      <point x="171" y="339"/>
      <point x="184" y="317"/>
      <point x="229" y="307" type="curve" smooth="yes"/>
      <point x="308" y="290" type="line" smooth="yes"/>
      <point x="380" y="274"/>
      <point x="433" y="228"/>
      <point x="433" y="155" type="curve" smooth="yes"/>
      <point x="433" y="39"/>
      <point x="336" y="-8"/>
      <point x="211" y="-8" type="curve" smooth="yes"/>
      <point x="120" y="-8"/>
      <point x="61" y="15"/>
      <point x="10" y="51" type="curve"/>
      <point x="51" y="113" type="line"/>
      <point x="92" y="78"/>
      <point x="154" y="57"/>
      <point x="214" y="57" type="curve" smooth="yes"/>
      <point x="303" y="57"/>
      <point x="350" y="83"/>
      <point x="350.28" y="139" type="curve" smooth="yes"/>
      <point x="350" y="175"/>
      <point x="347" y="212"/>
      <point x="278" y="227" type="curve" smooth="yes"/>
      <point x="187" y="247" type="line" smooth="yes"/>
      <point x="145" y="257"/>
      <point x="88" y="277"/>
      <point x="88" y="380" type="curve" smooth="yes"/>
      <point x="88" y="466"/>
      <point x="174" y="528"/>
    </contour>
  </outline>
</glyph>
<glyph name="t" format="2">
  <advance width="342"/>
  <unicode hex="0074"/>
  <outline>
    <contour>
      <point x="187.786" y="649" type="line"/>
      <point x="273.863" y="687" type="line"/>
      <point x="238.366" y="520" type="line"/>
      <point x="376.366" y="520" type="line"/>
      <point x="362.763" y="456" type="line"/>
      <point x="224.763" y="456" type="line"/>
      <point x="153.981" y="123" type="line" smooth="yes"/>
      <point x="143.991" y="76"/>
      <point x="166.103" y="53"/>
      <point x="202.103" y="53" type="curve"/>
      <point x="211.103" y="53"/>
      <point x="221.315" y="54"/>
      <point x="229.527" y="55" type="curve" smooth="yes"/>
      <point x="278.229" y="63" type="line"/>
      <point x="275.325" y="7" type="line"/>
      <point x="235.199" y="-3"/>
      <point x="208.137" y="-8"/>
      <point x="187.137" y="-8" type="curve" smooth="yes"/>
      <point x="100.137" y="-8"/>
      <point x="57.9141" y="38"/>
      <point x="75.5566" y="121" type="curve" smooth="yes"/>
      <point x="146.763" y="456" type="line"/>
      <point x="40.7627" y="456" type="line"/>
      <point x="54.3662" y="520" type="line"/>
      <point x="160.366" y="520" type="line"/>
    </contour>
  </outline>
</glyph>
<glyph name="u" format="2">
  <advance width="582"/>
  <unicode hex="0075"/>
  <guideline x="0" y="260" angle="0" name="ItalicCenter" identifier="fontra-guideline-0"/>
  <anchor x="386.612" y="687" name="AccentCenter"/>
  <outline>
    <contour>
      <point x="135" y="520" type="line"/>
      <point x="215" y="520" type="line"/>
      <point x="146" y="197" type="line" smooth="yes"/>
      <point x="126" y="103"/>
      <point x="151" y="56"/>
      <point x="222" y="56" type="curve" smooth="yes"/>
      <point x="259" y="56"/>
      <point x="312" y="66"/>
      <point x="388" y="146" type="curve"/>
      <point x="467" y="520" type="line"/>
      <point x="545" y="520" type="line"/>
      <point x="435" y="0" type="line"/>
      <point x="373" y="0" type="line"/>
      <point x="376" y="81" type="line"/>
      <point x="356" y="62"/>
      <point x="281" y="-8"/>
      <point x="184" y="-8" type="curve" smooth="yes"/>
      <point x="141" y="-8"/>
      <point x="23" y="-8"/>
      <point x="66" y="195" type="curve" smooth="yes"/>
    </contour>
  </outline>
</glyph>
<glyph name="v" format="2">
  <advance width="446"/>
  <unicode hex="0076"/>
  <guideline x="0" y="260" angle="0" name="ItalicCenter" identifier="fontra-guideline-0"/>
  <outline>
    <contour>
      <point x="56" y="520" type="line"/>
      <point x="142" y="520" type="line"/>
      <point x="167" y="77" type="line"/>
      <point x="414" y="520" type="line"/>
      <point x="506" y="520" type="line"/>
      <point x="196" y="0" type="line"/>
      <point x="106" y="0" type="line"/>
    </contour>
  </outline>
</glyph>
<glyph name="w" format="2">
  <advance width="757"/>
  <unicode hex="0077"/>
  <outline>
    <contour>
      <point x="95.2646" y="520" type="line"/>
      <point x="175.265" y="520" type="line"/>
      <point x="173.252" y="73" type="line"/>
      <point x="388.265" y="520" type="line"/>
      <point x="480.265" y="520" type="line"/>
      <point x="498.314" y="78" type="line"/>
      <point x="691.265" y="520" type="line"/>
      <point x="772.265" y="520" type="line"/>
      <point x="535.735" y="0" type="line"/>
      <point x="433.735" y="0" type="line"/>
      <point x="415.984" y="434" type="line"/>
      <point x="206.735" y="0" type="line"/>
      <point x="104.735" y="0" type="line"/>
    </contour>
  </outline>
</glyph>
<glyph name="x" format="2">
  <advance width="537"/>
  <unicode hex="0078"/>
  <outline>
    <contour>
      <point x="85.2646" y="520" type="line"/>
      <point x="181.265" y="520" type="line"/>
      <point x="279.841" y="311" type="line"/>
      <point x="466.265" y="520" type="line"/>
      <point x="562.265" y="520" type="line"/>
      <point x="317" y="260" type="line"/>
      <point x="451.735" y="0" type="line"/>
      <point x="355.735" y="0" type="line"/>
      <point x="258.585" y="211" type="line"/>
      <point x="70.7354" y="0" type="line"/>
      <point x="-25.2646" y="0" type="line"/>
      <point x="221" y="260" type="line"/>
    </contour>
  </outline>
</glyph>
<glyph name="y" format="2">
  <advance width="486"/>
  <unicode hex="0079"/>
  <anchor x="328.167" y="687" name="AccentCenter"/>
  <outline>
    <contour>
      <point x="50.67" y="520" type="line"/>
      <point x="137.67" y="520" type="line"/>
      <point x="197.411" y="133" type="line"/>
      <point x="197.90800000000002" y="93" type="line"/>
      <point x="214.411" y="133" type="line"/>
      <point x="438.67" y="520" type="line"/>
      <point x="528.67" y="520" type="line"/>
      <point x="91.33000000000001" y="-192" type="line"/>
      <point x="10.330100000000002" y="-192" type="line"/>
      <point x="144.667" y="26" type="line"/>
    </contour>
  </outline>
</glyph>
<glyph name="z" format="2">
  <advance width="514"/>
  <unicode hex="007A"/>
  <guideline x="0" y="260" angle="0" name="ItalicCenter" identifier="fontra-guideline-0"/>
  <outline>
    <contour>
      <point x="116" y="520" type="line"/>
      <point x="510" y="520" type="line"/>
      <point x="496" y="451" type="line"/>
      <point x="113" y="65" type="line"/>
      <point x="420" y="65" type="line"/>
      <point x="406" y="0" type="line"/>
      <point x="4" y="0" type="line"/>
      <point x="18" y="65" type="line"/>
      <point x="405" y="451" type="line"/>
      <point x="102" y="451" type="line"/>
    </contour>
  </outline>
</glyph>
<glyph name="braceleft" format="2">
  <advance width="298"/>
  <unicode hex="007B"/>
  <outline>
    <contour>
      <point x="379.631" y="814" type="curve"/>
      <point x="365.603" y="748" type="line"/>
      <point x="298.603" y="748"/>
      <point x="241.274" y="690"/>
      <point x="228.521" y="630" type="curve"/>
      <point x="235.439" y="512" type="line"/>
      <point x="226.087" y="468"/>
      <point x="195.971" y="411"/>
      <point x="130.531" y="376" type="curve"/>
      <point x="183.43" y="352"/>
      <point x="186.551" y="282"/>
      <point x="179.324" y="248" type="curve"/>
      <point x="119.267" y="116" type="line"/>
      <point x="105.663" y="52"/>
      <point x="134.61" y="0"/>
      <point x="206.61" y="0" type="curve"/>
      <point x="192.369" y="-67" type="line"/>
      <point x="83.5811" y="-66"/>
      <point x="18.6484" y="19"/>
      <point x="39.0537" y="115" type="curve"/>
      <point x="102.087" y="261" type="line"/>
      <point x="111.865" y="307"/>
      <point x="73.7295" y="344"/>
      <point x="29.7295" y="344" type="curve"/>
      <point x="43.7588" y="410" type="line"/>
      <point x="91.7588" y="410"/>
      <point x="142.686" y="452"/>
      <point x="153.313" y="502" type="curve"/>
      <point x="148.733" y="631" type="line"/>
      <point x="169.139" y="727"/>
      <point x="271.631" y="814"/>
    </contour>
  </outline>
</glyph>
<glyph name="braceright" format="2">
  <advance width="298"/>
  <unicode hex="007D"/>
  <outline>
    <contour>
      <point x="129.631" y="814" type="line"/>
      <point x="237.631" y="814"/>
      <point x="303.139" y="727"/>
      <point x="282.733" y="631" type="curve"/>
      <point x="223.313" y="502" type="line"/>
      <point x="212.686" y="452"/>
      <point x="245.759" y="410"/>
      <point x="293.759" y="410" type="curve"/>
      <point x="279.729" y="344" type="line"/>
      <point x="235.729" y="344"/>
      <point x="181.865" y="307"/>
      <point x="172.087" y="261" type="curve"/>
      <point x="173.054" y="115" type="line"/>
      <point x="152.648" y="19"/>
      <point x="51.5811" y="-66"/>
      <point x="-57.6309" y="-67" type="curve"/>
      <point x="-43.3896" y="0" type="line"/>
      <point x="28.6104" y="0"/>
      <point x="79.6631" y="52"/>
      <point x="93.2666" y="116" type="curve"/>
      <point x="89.3242" y="248" type="line"/>
      <point x="96.5508" y="282"/>
      <point x="129.43" y="352"/>
      <point x="192.531" y="376" type="curve"/>
      <point x="141.971" y="411"/>
      <point x="136.087" y="468"/>
      <point x="145.439" y="512" type="curve"/>
      <point x="202.521" y="630" type="line"/>
      <point x="215.274" y="690"/>
      <point x="182.603" y="748"/>
      <point x="115.603" y="748" type="curve"/>
    </contour>
  </outline>
</glyph>
<glyph name="asciitilde" format="2">
  <advance width="662"/>
  <unicode hex="007E"/>
  <outline>
    <contour>
      <point x="605.971" y="343" type="line"/>
      <point x="564.43" y="284"/>
      <point x="503.89" y="225"/>
      <point x="413.89" y="225" type="curve" smooth="yes"/>
      <point x="327.89" y="225"/>
      <point x="301.231" y="316"/>
      <point x="229.231" y="316" type="curve" smooth="yes"/>
      <point x="173.231" y="316"/>
      <point x="138.729" y="276"/>
      <point x="106.59" y="233" type="curve"/>
      <point x="55.8164" y="267" type="line"/>
      <point x="101.357" y="326"/>
      <point x="163.11" y="386"/>
      <point x="250.11" y="386" type="curve" smooth="yes"/>
      <point x="328.11" y="386"/>
      <point x="370.98" y="296"/>
      <point x="436.98" y="296" type="curve" smooth="yes"/>
      <point x="485.98" y="296"/>
      <point x="512.933" y="324"/>
      <point x="555.048" y="381" type="curve"/>
    </contour>
  </outline>
</glyph>
<glyph name="section" format="2">
  <advance width="567"/>
  <unicode hex="00A7"/>
  <outline>
    <contour>
      <point x="313" y="768" type="curve" smooth="yes"/>
      <point x="406" y="768"/>
      <point x="470" y="737"/>
      <point x="524" y="696" type="curve"/>
      <point x="487" y="644" type="line"/>
      <point x="446" y="677"/>
      <point x="381" y="703"/>
      <point x="308" y="703" type="curve" smooth="yes"/>
      <point x="269" y="703"/>
      <point x="146" y="694"/>
      <point x="146" y="580" type="curve" smooth="yes"/>
      <point x="146" y="503"/>
      <point x="181" y="467"/>
      <point x="291" y="444" type="curve"/>
      <point x="341" y="433" type="line" smooth="yes"/>
      <point x="472" y="405"/>
      <point x="538" y="338"/>
      <point x="538" y="232" type="curve" smooth="yes"/>
      <point x="538" y="177"/>
      <point x="517" y="131"/>
      <point x="475" y="96" type="curve"/>
      <point x="490" y="69"/>
      <point x="498" y="38"/>
      <point x="498" y="2" type="curve" smooth="yes"/>
      <point x="498" y="-108"/>
      <point x="410" y="-191"/>
      <point x="255" y="-191" type="curve" smooth="yes"/>
      <point x="154" y="-191"/>
      <point x="74" y="-152"/>
      <point x="18" y="-104" type="curve"/>
      <point x="53" y="-43" type="line"/>
      <point x="106" y="-96"/>
      <point x="190" y="-127"/>
      <point x="259" y="-127" type="curve" smooth="yes"/>
      <point x="327" y="-127"/>
      <point x="422" y="-108"/>
      <point x="422" y="0" type="curve" smooth="yes"/>
      <point x="422" y="60"/>
      <point x="399" y="110"/>
      <point x="269" y="137" type="curve"/>
      <point x="223" y="147" type="line"/>
      <point x="142" y="161"/>
      <point x="28" y="207"/>
      <point x="28" y="348" type="curve" smooth="yes"/>
      <point x="28" y="403"/>
      <point x="49" y="447"/>
      <point x="92" y="482" type="curve"/>
      <point x="76" y="510"/>
      <point x="68" y="543"/>
      <point x="68" y="580" type="curve" smooth="yes"/>
      <point x="68" y="682"/>
      <point x="152" y="768"/>
    </contour>
    <contour>
      <point x="137" y="429" type="curve"/>
      <point x="116" y="409"/>
      <point x="106" y="383"/>
      <point x="106" y="350" type="curve" smooth="yes"/>
      <point x="106" y="274"/>
      <point x="141" y="236"/>
      <point x="251" y="213" type="curve" smooth="yes"/>
      <point x="301" y="202" type="line" smooth="yes"/>
      <point x="356" y="191"/>
      <point x="399" y="172"/>
      <point x="431" y="147" type="curve"/>
      <point x="452" y="168"/>
      <point x="462" y="197"/>
      <point x="462" y="232" type="curve" smooth="yes"/>
      <point x="462" y="292"/>
      <point x="439" y="341"/>
      <point x="309" y="368" type="curve"/>
      <point x="263" y="378" type="line"/>
      <point x="211" y="387"/>
      <point x="169" y="404"/>
    </contour>
  </outline>
</glyph>
<glyph name="copyright" format="2">
  <advance width="872"/>
  <unicode hex="00A9"/>
  <outline>
    <contour>
      <point x="436" y="744" type="curve" smooth="yes"/>
      <point x="222" y="744"/>
      <point x="48" y="570"/>
      <point x="48" y="356" type="curve" smooth="yes"/>
      <point x="48" y="141"/>
      <point x="221" y="-32"/>
      <point x="436" y="-32" type="curve" smooth="yes"/>
      <point x="651" y="-32"/>
      <point x="824" y="141"/>
      <point x="824" y="356" type="curve" smooth="yes"/>
      <point x="824" y="570"/>
      <point x="651" y="744"/>
    </contour>
    <contour>
      <point x="436" y="687" type="curve" smooth="yes"/>
      <point x="617" y="687"/>
      <point x="762" y="537"/>
      <point x="762" y="356" type="curve" smooth="yes"/>
      <point x="762" y="175"/>
      <point x="617" y="25"/>
      <point x="436" y="25" type="curve" smooth="yes"/>
      <point x="254" y="25"/>
      <point x="110" y="175"/>
      <point x="110" y="356" type="curve" smooth="yes"/>
      <point x="110" y="537"/>
      <point x="255" y="687"/>
    </contour>
    <contour>
      <point x="435" y="594" type="curve" smooth="yes"/>
      <point x="504" y="594"/>
      <point x="542" y="580"/>
      <point x="592" y="551" type="curve"/>
      <point x="572" y="499" type="line"/>
      <point x="537" y="523"/>
      <point x="494" y="537"/>
      <point x="439" y="537" type="curve" smooth="yes"/>
      <point x="345" y="537"/>
      <point x="280" y="476"/>
      <point x="280" y="354" type="curve" smooth="yes"/>
      <point x="280" y="233"/>
      <point x="345" y="178"/>
      <point x="437" y="178" type="curve" smooth="yes"/>
      <point x="500" y="178"/>
      <point x="542" y="190"/>
      <point x="589" y="223" type="curve"/>
      <point x="611" y="172" type="line"/>
      <point x="556" y="135"/>
      <point x="507" y="120"/>
      <point x="433" y="120" type="curve" smooth="yes"/>
      <point x="304" y="120"/>
      <point x="209" y="205"/>
      <point x="209" y="354" type="curve" smooth="yes"/>
      <point x="209" y="508"/>
      <point x="301" y="594"/>
    </contour>
  </outline>
</glyph>
<glyph name="dotlessi" format="2">
  <advance width="313"/>
  <unicode hex="0131"/>
  <anchor x="176" y="687" name="AccentCenter"/>
  <outline>
    <contour>
      <point x="85" y="520" type="line"/>
      <point x="267" y="520" type="line"/>
      <point x="157" y="0" type="line"/>
      <point x="77" y="0" type="line"/>
      <point x="173" y="455" type="line"/>
      <point x="71" y="455" type="line"/>
    </contour>
  </outline>
</glyph>
<glyph name="acutecomb" format="2">
  <unicode hex="0301"/>
  <anchor x="0" y="834" name="_AccentCenter"/>
  <outline>
    <contour>
      <point x="151" y="931" type="line"/>
      <point x="198" y="867" type="line"/>
      <point x="-21" y="744" type="line"/>
      <point x="-56" y="796" type="line"/>
    </contour>
  </outline>
</glyph>
<glyph name="uni0304" format="2">
  <advance width="0"/>
  <unicode hex="0304"/>
  <anchor x="0" y="833" name="AccentCenter"/>
  <outline>
    <contour>
      <point x="-128" y="865" type="line"/>
      <point x="128" y="865" type="line"/>
      <point x="128" y="801" type="line"/>
      <point x="-128" y="801" type="line"/>
    </contour>
  </outline>
</glyph>
<glyph name="uni0327" format="2">
  <unicode hex="0327"/>
  <outline>
    <contour>
      <point x="-38" y="0" type="line"/>
      <point x="38" y="0" type="line"/>
      <point x="38" y="-105" type="line" smooth="yes"/>
      <point x="38" y="-126"/>
      <point x="32" y="-224"/>
      <point x="-89" y="-224" type="curve" smooth="yes"/>
      <point x="-106" y="-224"/>
      <point x="-122" y="-221"/>
      <point x="-137" y="-216" type="curve"/>
      <point x="-124" y="-163" type="line"/>
      <point x="-91" y="-163" type="line" smooth="yes"/>
      <point x="-56" y="-163"/>
      <point x="-38" y="-144"/>
      <point x="-38" y="-106" type="curve" smooth="yes"/>
    </contour>
  </outline>
</glyph>
